<?xml version="1.0" encoding="utf-8"?>
<!-- Generator: Adobe Illustrator 16.0.0, SVG Export Plug-In . SVG Version: 6.00 Build 0)  -->
<!DOCTYPE svg PUBLIC "-//W3C//DTD SVG 1.1//EN" "http://www.w3.org/Graphics/SVG/1.1/DTD/svg11.dtd">
<svg version="1.1" id="Layer_1" xmlns="http://www.w3.org/2000/svg" xmlns:xlink="http://www.w3.org/1999/xlink" x="0px" y="0px"
	 width="2001px" height="477px" viewBox="0 0 2001 477" enable-background="new 0 0 2001 477" xml:space="preserve">
<g id="banner">
	<g id="XMLID_1_">
		<g>
			<path fill="#A1A0A0" d="M2001.01,303.359c0,3.521,0,7.041,0,10.561c-2.938,5.32-7.1,8.75-13.529,8.6
				c-6.979-0.158-12.689-5.379-13.641-12.438c-0.859-6.431,3.47-13.149,9.74-15.101c6.81-2.119,13.53,0.779,16.71,7.199
				C2000.49,302.59,2000.77,302.971,2001.01,303.359z M1998.18,308.46c0.012-6.149-4.25-10.431-10.35-10.41
				c-5.9,0.03-10.34,4.421-10.38,10.271c-0.04,6.121,4.38,10.471,10.62,10.471C1994.1,318.779,1998.17,314.62,1998.18,308.46z"/>
			<path fill="#FFFFFF" d="M1987.83,298.05c6.1-0.021,10.359,4.261,10.35,10.41c-0.01,6.16-4.08,10.319-10.108,10.33
				c-6.24,0-10.66-4.351-10.62-10.47C1977.49,302.471,1981.93,298.08,1987.83,298.05z"/>
			<path fill="#A1A0A0" d="M1943.28,218.16c0.028,23.43,0.028,46.859-0.011,70.29c-0.011,5.899-1,11.6-4.131,16.76
				c-5,8.24-12.438,13.11-21.858,13.79c-9.69,0.71-19.5,0.73-29.2,0.09c-14.65-0.949-26.23-14.01-26.271-28.72
				c-0.039-14.95,0-29.91,0-44.86c-0.02,0-0.039,0-0.06,0c0-14.63-0.01-29.27,0-43.9c0.021-15.09,9.82-26.79,24.67-29.44
				c1.25-0.23,2.54-0.3,3.812-0.31c8.148-0.02,16.31-0.04,24.47,0c15.34,0.07,27.49,11.56,28.26,26.89
				C1943.28,205.21,1943.27,211.69,1943.28,218.16z M1939.89,288.971c0.052-14.16,0.021-28.311,0.021-42.471
				c0-1.12,0.01-2.24,0-3.359c-0.11-14.631,0-29.261-0.392-43.891c-0.34-13.15-11.118-23.72-24.06-23.99
				c-8.08-0.16-16.16-0.16-24.24-0.01c-15.318,0.27-26.02,11.33-26.028,26.72c-0.021,26.23-0.062,52.47-0.03,78.7
				c0,4.7-0.271,9.521,0.62,14.09c2.3,11.87,12.729,20.83,23.91,21c8.39,0.12,16.789,0.102,25.18-0.068
				c7.68-0.16,14.04-3.271,19.02-9.19C1938.16,301.42,1939.87,295.471,1939.89,288.971z"/>
			<path fill="#FFFFFF" d="M1939.91,246.5c0,14.16,0.03,28.311-0.021,42.471c-0.02,6.5-1.729,12.449-6,17.529
				c-4.979,5.92-11.34,9.029-19.02,9.189c-8.391,0.17-16.79,0.189-25.18,0.069c-11.182-0.17-21.61-9.13-23.91-21
				c-0.892-4.569-0.62-9.39-0.62-14.09c-0.03-26.229,0.01-52.47,0.03-78.7c0.01-15.39,10.709-26.45,26.028-26.72
				c8.08-0.15,16.16-0.15,24.24,0.01c12.94,0.27,23.72,10.84,24.06,23.99c0.392,14.63,0.28,29.26,0.392,43.89
				C1939.92,244.26,1939.91,245.38,1939.91,246.5z M1929.45,233.06c0-10.63,0.03-21.27-0.011-31.9
				c-0.029-7.96-6.489-15.24-13.921-15.39c-8.63-0.18-17.27-0.15-25.898,0.04c-7.62,0.16-13.88,6.75-13.891,14.38
				c-0.029,30.14-0.029,60.28,0.039,90.419c0,1.859,0.48,3.83,1.182,5.57c2.75,6.789,8.239,9.409,15.22,9.479
				c6.71,0.069,13.43-0.05,20.14,0.069c9.921,0.181,17.142-6.721,17.142-16.601c0-8.851-0.062-17.71-0.07-26.569
				c-0.01-9.83,0-19.67,0-29.5C1929.4,233.06,1929.43,233.06,1929.45,233.06z"/>
			<path fill="#A1A0A0" d="M1929.439,201.16c0.041,10.63,0.011,21.27,0.011,31.9c-0.021,0-0.05,0-0.07,0c0,9.831-0.01,19.67,0,29.5
				c0.01,8.859,0.07,17.721,0.07,26.569c0,9.88-7.22,16.78-17.142,16.601c-6.71-0.119-13.43,0-20.14-0.069
				c-6.979-0.07-12.47-2.69-15.22-9.479c-0.7-1.74-1.182-3.711-1.182-5.57c-0.068-30.141-0.068-60.279-0.039-90.419
				c0.011-7.63,6.271-14.22,13.891-14.38c8.63-0.19,17.27-0.22,25.898-0.04C1922.95,185.92,1929.41,193.2,1929.439,201.16z
				 M1926.07,228.35c0-8.31,0.05-16.63-0.012-24.95c-0.078-9.89-4.6-14.3-14.488-14.31c-6.562-0.01-13.12-0.05-19.67-0.05
				c-1.03,0.01-2.092,0.1-3.092,0.34c-6.05,1.47-9.818,6.43-9.828,13.06c-0.012,16.32,0.05,32.63,0.06,48.94
				c0.01,12.64-0.03,25.271,0.021,37.91c0.029,7.71,4.891,12.66,12.551,12.76c7.1,0.101,14.21,0.13,21.31,0
				c8.25-0.149,13.16-5.27,13.141-13.52c-0.011-4.07-0.279-8.15-0.261-12.222c0.03-9.27,0.2-18.528,0.261-27.8
				C1926.11,241.79,1926.07,235.07,1926.07,228.35z"/>
			<path fill="#A1A0A0" d="M1827.59,270.73c0.07,5.6,0.18,11.199-0.04,16.789c-0.14,3.801-0.38,7.699-1.35,11.351
				c-2.92,11.01-13.38,19.71-24.78,20.229c-9.72,0.449-19.5,0.59-29.21-0.021c-14.15-0.89-26.04-14.261-26.08-28.47
				c-0.03-15.041,0-30.07,0-45.11c0-14.71-0.01-29.43,0-44.14c0-16.5,13.021-29.51,29.53-29.51c7.83,0,15.67-0.02,23.51,0
				c15.2,0.04,28.36,13.15,28.44,28.32c0.02,6.24,0,12.48,0,18.72c0,0.4,0.01,0.8-0.012,1.2c-0.188,3.4-0.188,3.4-3.55,3.4
				c-3.68,0-7.359-0.05-11.04,0.03c-1.688,0.03-2.7-0.25-2.7-2.29c0.012-6.47-0.17-12.94-0.198-19.41
				c-0.012-3.98-1.222-7.4-4.352-9.96c-2.47-2.01-5.438-2.66-8.528-2.7c-7.102-0.07-14.212-0.1-21.312-0.04
				c-6.79,0.05-12.45,5.78-12.479,12.66c-0.051,10,0.041,20,0.029,29.99c0,18.161-0.04,36.31-0.029,54.459
				c0,1.91,0.101,3.851,0.421,5.721c0.979,5.8,5.358,9.83,11.188,9.96c7.9,0.18,15.812,0.18,23.71-0.011
				c6.28-0.149,11.03-4.891,11.23-11.199c0.22-6.95,0.159-13.91,0.06-20.87c-0.03-2.021,0.59-2.62,2.57-2.562
				c3.898,0.142,7.81,0.03,11.71,0.051C1827.46,267.33,1827.55,267.35,1827.59,270.73z M1824.02,217.98
				c-0.038-5.98,0.23-11.97-0.06-17.94c-0.72-14.34-11.35-24.53-25.7-24.8c-7.029-0.13-14.068-0.08-21.108-0.06
				c-16.352,0.05-27.7,11.47-27.7,27.85c0.01,14.24,0,28.47,0,42.71c0.02,0,0.04,0,0.06,0c0,14.949-0.06,29.91,0.021,44.859
				c0.069,13.471,11.77,25.061,25.229,25.109c7.99,0.029,15.99,0.04,23.99,0c11.95-0.05,22.01-7.9,24.61-19.62
				c1.72-7.78,1.06-15.729,0.52-23.62c-0.029-0.47-0.81-1.25-1.27-1.27c-2.45-0.12-4.92-0.131-7.37,0.02
				c-0.54,0.03-1.45,0.852-1.471,1.33c-0.149,5.021-0.601,10.09-0.109,15.061c0.96,9.75-5.76,17.699-15.58,17.761
				c-7.18,0.03-14.36,0.01-21.54,0c-10.21-0.011-16.439-6.25-16.439-16.45c-0.011-18.32,0-36.63-0.011-54.94
				c0-10.88-0.069-21.76-0.04-32.63c0.03-8.06,6.771-15.42,14.381-15.55c8.229-0.14,16.479-0.18,24.699,0.07
				c6.32,0.19,10.99,3.4,13.271,9.35c0.92,2.39,1.14,5.13,1.25,7.74c0.199,5.02,0.119,10.07,0.09,15.11c0,1.34,0.47,1.84,1.818,1.79
				c2.15-0.08,4.32-0.1,6.48,0.01C1823.49,219.94,1824.03,219.43,1824.02,217.98z"/>
			<path fill="#FFFFFF" d="M1823.96,200.04c0.29,5.97,0.021,11.96,0.06,17.94c0.012,1.45-0.528,1.96-1.979,1.89
				c-2.16-0.11-4.33-0.09-6.48-0.01c-1.35,0.05-1.818-0.45-1.818-1.79c0.029-5.04,0.109-10.09-0.09-15.11
				c-0.11-2.61-0.33-5.35-1.25-7.74c-2.28-5.95-6.95-9.16-13.271-9.35c-8.22-0.25-16.47-0.21-24.699-0.07
				c-7.609,0.13-14.351,7.49-14.381,15.55c-0.029,10.87,0.04,21.75,0.04,32.63c0.011,18.31,0,36.62,0.011,54.94
				c0,10.2,6.229,16.439,16.439,16.45c7.18,0.01,14.36,0.03,21.54,0c9.82-0.062,16.54-8.011,15.58-17.761
				c-0.49-4.971-0.04-10.039,0.109-15.061c0.021-0.479,0.931-1.3,1.471-1.33c2.45-0.148,4.92-0.14,7.37-0.02
				c0.46,0.02,1.238,0.8,1.27,1.27c0.54,7.891,1.2,15.84-0.52,23.62c-2.602,11.72-12.66,19.57-24.61,19.62c-8,0.04-16,0.029-23.99,0
				c-13.46-0.05-25.159-11.641-25.229-25.109c-0.08-14.949-0.021-29.91-0.021-44.859c-0.02,0-0.04,0-0.06,0
				c0-14.24,0.01-28.47,0-42.71c0-16.38,11.35-27.8,27.7-27.85c7.04-0.02,14.079-0.07,21.108,0.06
				C1812.61,175.51,1823.24,185.7,1823.96,200.04z"/>
			<path fill="#A1A0A0" d="M1648.74,101.79c1.84-0.05,2.49,0.57,2.24,2.33c-0.052,0.31-0.012,0.63-0.012,0.96
				c0,70.29,0,140.59,0,210.891c0,3.609,0.262,3.189-3.238,3.199c-1.5,0-3.012-0.01-4.512-0.01l0.021-2.99
				c0.27,0,0.529-0.01,0.79-0.02c3.27-0.142,3.528-0.512,3.63-3.82c0.01-0.24,0-0.48,0-0.721c0.06-16.319,0.17-32.641,0.18-48.949
				c0.01-31.52,0-63.04-0.08-94.56c-0.05-16.7-0.25-33.42-0.39-50.13c-0.03-3.28-0.2-6.56-0.09-9.83c0.06-1.93-0.431-2.77-2.511-2.6
				c-2.141,0.17-4.329,0.17-6.471,0c-2.029-0.17-2.568,0.58-2.58,2.53c-0.079,13.11-0.38,26.22-0.369,39.33h-2.931
				c0-14.25-0.01-28.49-0.05-42.73c0-2.34,0.63-2.99,2.93-2.89C1639.77,101.96,1644.26,101.92,1648.74,101.79z"/>
			<path fill="#FFFFFF" d="M1647.76,168.1c0.08,31.52,0.09,63.04,0.08,94.56c-0.01,16.31-0.12,32.63-0.18,48.949
				c0,0.24,0.01,0.479,0,0.721c-0.102,3.311-0.36,3.68-3.63,3.82c-0.262,0.01-0.521,0.02-0.79,0.02c-1.812,0-3.62-0.24-5.432-0.24
				c-1.329,0-1.6-0.648-1.59-1.789c0-2.721-0.109-5.439-0.109-8.16c-0.021-15.189-0.011-30.381-0.011-45.569
				c-0.159,0-0.318,0-0.479,0c0-12.16,0.03-24.32-0.011-36.47c-0.069-25.52-0.25-51.02-0.261-76.54
				c-0.01-13.11,0.29-26.22,0.37-39.33c0.011-1.95,0.55-2.7,2.58-2.53c2.141,0.17,4.33,0.17,6.47,0c2.08-0.17,2.57,0.67,2.511,2.6
				c-0.109,3.27,0.061,6.55,0.091,9.83C1647.51,134.68,1647.71,151.4,1647.76,168.1z"/>
			<path fill="#A1A0A0" d="M1643.24,316.17l-0.021,2.99c-2.818-0.03-5.63-0.04-8.449,0.061c-1.949,0.061-2.391-0.609-2.381-2.451
				c0.062-17.199,0.03-34.39,0.03-51.59c0-18.31,0-36.63,0-54.938c0-20.95,0.01-41.9,0-62.84h2.931
				c0.011,25.52,0.189,51.02,0.261,76.54c0.04,12.15,0.01,24.31,0.01,36.47c0.16,0,0.32,0,0.479,0
				c0,15.188-0.011,30.38,0.011,45.569c0,2.721,0.108,5.439,0.108,8.16c-0.01,1.141,0.262,1.789,1.59,1.789
				C1639.62,315.93,1641.43,316.17,1643.24,316.17z"/>
			<path fill="#A1A0A0" d="M1603.01,300.439c2.23-0.01,3.08,0.431,2.971,2.851c-0.199,4.55-0.109,9.11-0.029,13.67
				c0.029,1.58-0.32,2.25-2.09,2.25c-25.2-0.06-50.4-0.069-75.592,0c-2.34,0.011-2.34-1.21-2.34-2.87
				c0.021-19.68,0.012-39.359,0.012-59.04c0-15.51,0-31.03,0-46.55c-0.021,0-0.052,0-0.08,0c0-34.88,0-69.75,0.01-104.63
				c0-0.88-0.2-1.87,0.13-2.6c0.311-0.7,1.19-1.6,1.84-1.61c5.12-0.13,10.24-0.05,15.36-0.1c1.21-0.01,1.77,0.4,1.76,1.64
				c-0.02,1.44,0.061,2.88,0.061,4.32c0,63.2,0,126.39,0,189.58c0,3.142,0,3.142,3.04,3.142
				C1566.38,300.49,1584.7,300.529,1603.01,300.439z M1600.05,315.51c1.8,0.131,2.65-0.55,2.53-2.49
				c-0.13-2.068-0.03-4.148-0.03-6.229c-0.01-2.92-0.01-2.92-2.84-2.92c-18.479-0.01-36.95-0.01-55.42-0.01
				c-3.07,0-3.07,0-3.07-3.11c0-63.82,0-127.64,0-191.45c0-0.72-0.04-1.44,0.012-2.16c0.079-1.15-0.432-1.55-1.552-1.53
				c-2.238,0.05-4.479,0.01-6.72,0.01c-2.95,0.01-2.95,0.01-2.95,3.01c0,33.91,0,67.82,0,101.73c0,33.98,0,67.97,0,101.959
				c0,3.181,0.011,3.189,3.11,3.189c21.91,0,43.82,0,65.74,0C1599.25,315.51,1599.66,315.48,1600.05,315.51z"/>
			<path fill="#FFFFFF" d="M1602.58,313.02c0.12,1.94-0.73,2.621-2.53,2.49c-0.39-0.029-0.8,0-1.188,0c-21.92,0-43.83,0-65.74,0
				c-3.102,0-3.11-0.01-3.11-3.189c0-33.989,0-67.979,0-101.959c0-33.91,0-67.82,0-101.73c0-3,0-3,2.95-3.01
				c2.24,0,4.48,0.04,6.72-0.01c1.12-0.02,1.63,0.38,1.552,1.53c-0.052,0.72-0.012,1.44-0.012,2.16c0,63.81,0,127.63,0,191.45
				c0,3.11,0,3.11,3.07,3.11c18.47,0,36.939,0,55.42,0.01c2.83,0,2.83,0,2.84,2.92C1602.55,308.87,1602.45,310.95,1602.58,313.02z"
				/>
			<path fill="#A1A0A0" d="M1492.25,316.05c0.01,2.13-0.13,3.421-2.84,3.341c-4.62-0.141-9.26,0.079-13.891,0.199
				c-1.359,0.04-1.551-0.699-1.561-1.811c-0.12-6.629-0.39-13.26-0.4-19.891c-0.068-45.108-0.108-90.22-0.119-135.33
				c0-17.12,0.109-34.23,0.189-51.35c0.021-2.55,0.271-5.1,0.3-7.65c0.011-1.31,0.42-1.83,1.802-1.81
				c4.948,0.06,9.908,0.06,14.868,0c1.29-0.01,1.722,0.5,1.632,1.71c-0.062,0.63-0.012,1.28-0.012,1.92c0,35.03,0,70.06,0,105.1
				C1492.22,245.67,1492.21,280.859,1492.25,316.05z M1488.72,107.11c0.07-1.12-0.398-1.58-1.55-1.55
				c-2.229,0.05-4.47,0.01-6.71,0.01c-3.06,0-3.07,0-3.07,3.12c0,67.89,0,135.78,0,203.669c0,0.399,0.062,0.811-0.01,1.199
				c-0.25,1.5,0.57,2.051,1.88,2.092c2.16,0.06,4.32,0.188,6.471,0.068c2.989-0.16,2.989-0.25,2.989-3.27c0-33.98,0-67.971,0-101.95
				c0-33.83,0-67.65,0-101.47C1488.72,108.39,1488.68,107.74,1488.72,107.11z"/>
			<path fill="#FFFFFF" d="M1487.17,105.56c1.15-0.03,1.62,0.43,1.55,1.55c-0.04,0.63,0,1.28,0,1.92c0,33.82,0,67.64,0,101.47
				c0,33.98,0,67.97,0,101.95c0,3.021,0,3.108-2.988,3.271c-2.15,0.119-4.312-0.011-6.472-0.07c-1.31-0.039-2.13-0.59-1.88-2.09
				c0.07-0.391,0.011-0.801,0.011-1.199c0-67.892,0-135.78,0-203.67c0-3.12,0.011-3.12,3.069-3.12
				C1482.7,105.57,1484.939,105.61,1487.17,105.56z"/>
			<path fill="#A1A0A0" d="M1439.83,263.24c0.04,11.119,0,22.24-0.07,33.359c-0.05,6.789-0.27,13.58-0.31,20.369
				c-0.021,1.69-0.41,2.42-2.29,2.36c-4.46-0.14-8.931-0.04-13.392-0.04c-2.93-0.01-3.079-0.15-3.079-3.16
				c-0.011-16.55,0-33.109,0-49.67c0-16.32,0-32.64,0-48.96c0-3.14-0.109-3.35-3.131-3.38c-16.31-0.17-32.619-0.52-48.92-0.31
				c-6.1,0.08-5.1-0.98-5.159,5.11c-0.109,9.51,0,19.01-0.04,28.521c-0.029,5.511-0.279,11.021-0.271,16.529
				c0.05,17.512,0.14,35.021,0.33,52.53c0.02,2.229-0.61,2.851-2.8,2.771c-4.562-0.16-9.12-0.109-13.682-0.011
				c-1.568,0.03-2.119-0.479-2.109-2.021c0.021-4.079-0.079-8.159-0.109-12.239c-0.149-18.069-0.38-36.14-0.42-54.21
				c-0.061-38.47-0.021-76.95-0.01-115.42c0.01-8.72,0.079-17.44,0.14-26.16c0.01-1.03,0.2-2.06,0.271-3.1
				c0.279-4.34,0.271-4.34,4.529-4.34c3.841,0,7.69,0.09,11.521-0.04c1.779-0.06,2.34,0.45,2.31,2.27
				c-0.1,6.48-0.04,12.96-0.04,19.44c0,22.64,0.04,45.28-0.05,67.91c-0.01,2.1,0.62,2.87,2.61,2.93
				c6.459,0.17,12.93,0.52,19.398,0.58c9.44,0.09,18.881,0,28.32-0.04c1.43-0.01,2.859-0.2,4.3-0.26c3.16-0.14,3,0.22,3-3.32
				c0.011-28.87,0.03-57.75-0.04-86.63c0-2.13,0.45-2.94,2.75-2.84c4.471,0.19,8.95,0.12,13.431,0.03
				c1.649-0.03,2.199,0.45,2.21,2.15c0.109,19.35,0.34,38.7,0.439,58.05C1439.63,195.75,1439.74,229.5,1439.83,263.24z
				 M1436.01,313.65c0.08-11.19,0.37-22.392,0.36-33.58c-0.04-37.512-0.181-75.021-0.271-112.53c-0.028-12.73,0-25.45-0.079-38.16
				c-0.051-7.44-0.279-14.87-0.391-22.3c-0.02-1.25-0.29-1.95-1.729-1.89c-2.16,0.09-4.33-0.07-6.48,0.06
				c-3.35,0.2-3.35,0.27-3.35,3.66c0,28.56,0,57.12-0.012,85.68c0,3.26-0.028,3.26-3.229,3.26c-19.2,0-38.4,0-57.6,0
				c-3.16,0-3.16,0-3.16-3.06c0-28.56,0-57.12,0-85.68c0-0.56-0.051-1.13,0.01-1.68c0.12-1.32-0.36-1.89-1.76-1.82
				c-2,0.09-4,0.02-6,0.02c-4.4,0-4.42,0-4.44,4.39c-0.069,14.08-0.18,28.16-0.18,42.23c-0.01,35.37-0.021,70.72,0.069,106.08
				c0.029,15.76,0.289,31.51,0.449,47.26c0.03,2.721,0.07,5.439,0.051,8.16c-0.011,1.38,0.211,2.29,1.961,2.2
				c2.22-0.101,4.47,0.239,6.68,0.05c3.16-0.279,3.149-0.41,3.149-3.54c0.029-32.96,0.079-65.92,0.029-98.88
				c0-2.26,0.521-2.98,2.892-2.97c19.438,0.1,38.88,0.09,58.318,0.01c2.16,0,2.83,0.51,2.82,2.76
				c-0.101,16.64-0.05,33.28-0.05,49.92c0,2.8,0,5.601,0,8.4c0,13.92,0.028,27.84-0.04,41.76c-0.012,1.87,0.47,2.55,2.398,2.42
				c2.472-0.159,4.96-0.14,7.432,0C1435.61,315.971,1436,315.26,1436.01,313.65z"/>
			<path fill="#FFFFFF" d="M1436.37,280.07c0.01,11.188-0.28,22.39-0.36,33.58c-0.01,1.608-0.398,2.318-2.148,2.229
				c-2.472-0.14-4.96-0.16-7.432,0c-1.93,0.13-2.41-0.55-2.398-2.42c0.068-13.92,0.04-27.84,0.04-41.76c0-2.801,0-5.602,0-8.4
				c0-16.64-0.052-33.28,0.05-49.92c0.01-2.25-0.66-2.76-2.82-2.76c-19.438,0.08-38.88,0.09-58.318-0.01
				c-2.37-0.01-2.892,0.71-2.892,2.97c0.05,32.96,0,65.92-0.03,98.88c0,3.13,0.012,3.26-3.148,3.54c-2.21,0.19-4.46-0.149-6.68-0.05
				c-1.75,0.09-1.972-0.82-1.962-2.2c0.021-2.72-0.02-5.44-0.05-8.16c-0.16-15.75-0.42-31.5-0.45-47.26
				c-0.09-35.36-0.079-70.71-0.068-106.08c0-14.07,0.108-28.15,0.18-42.23c0.021-4.39,0.04-4.39,4.44-4.39c2,0,4,0.07,6-0.02
				c1.398-0.07,1.88,0.5,1.76,1.82c-0.062,0.55-0.01,1.12-0.01,1.68c0,28.56,0,57.12,0,85.68c0,3.06,0,3.06,3.16,3.06
				c19.198,0,38.398,0,57.6,0c3.2,0,3.229,0,3.229-3.26c0.012-28.56,0.012-57.12,0.012-85.68c0-3.39,0-3.46,3.35-3.66
				c2.15-0.13,4.32,0.03,6.48-0.06c1.438-0.06,1.709,0.64,1.729,1.89c0.11,7.43,0.34,14.86,0.39,22.3
				c0.08,12.71,0.052,25.43,0.08,38.16C1436.189,205.05,1436.33,242.561,1436.37,280.07z"/>
			<path fill="#A1A0A0" d="M1310.68,135.71c0.08,8.95,0.062,17.91,0.021,26.87c-0.021,3.47-0.09,3.47-3.45,3.47
				c-4.319,0-8.64-0.11-12.95,0.05c-2.14,0.07-2.88-0.46-2.84-2.75c0.141-7.99,0.09-15.99,0.04-23.99
				c-0.02-2.63-0.16-5.27-0.41-7.89c-0.529-5.64-5.59-10.45-11.3-10.5c-11.189-0.11-22.39-0.12-33.58,0
				c-6.149,0.061-11.26,5.21-11.77,11.49c-0.11,1.28-0.11,2.56-0.11,3.84c-0.01,24.79,0,49.59,0,74.39
				c0,25.04,0.181,50.07-0.1,75.11c-0.11,9.44,6.909,14.851,14.909,14.72c9.109-0.14,18.229-0.02,27.351-0.028
				c9.56-0.011,15.021-5.49,15.021-15.05c0.01-9.432,0.05-18.852-0.041-28.271c-0.01-1.77,0.44-2.37,2.271-2.32
				c4.88,0.12,9.76,0.12,14.64,0c1.75-0.039,2.271,0.73,2.261,2.23c-0.12,11.43,0.271,22.891-0.511,34.27
				c-0.97,14.301-14.26,27.121-28.62,27.75c-12.358,0.53-24.778,0.57-37.14-0.02c-15.58-0.73-28.54-14.609-29.13-30.189
				c-0.021-0.399-0.04-0.801-0.04-1.199c-0.101-30.86-0.229-61.73-0.28-92.602c-0.02-9.35,0.24-18.7,0.25-28.05
				c0.01-7.44-0.359-14.87-0.21-22.3c0.13-6.2,0.08-12.54,1.36-18.56c2.96-13.98,15.54-24.04,29.8-24.42
				c10.22-0.28,20.46-0.4,30.689-0.28c17.25,0.18,29.859,10.45,33.181,26.85C1310.48,130.74,1310.66,133.24,1310.68,135.71z
				 M1306.92,287.21c0.03-8.16,0.01-16.319,0-24.479c-0.01-1.029,0.05-2.141-0.29-3.069c-0.22-0.61-1.09-1.351-1.7-1.38
				c-2.64-0.15-5.278-0.012-7.92-0.09c-1.27-0.041-1.699,0.488-1.71,1.67c-0.068,8.55-0.53,17.119-0.16,25.648
				c0.432,9.84-7.068,18.34-16.96,18.352c-10.08,0.02-20.148,0.039-30.229,0.02c-1.19,0-2.41-0.08-3.562-0.34
				c-8.329-1.939-13.818-8.891-13.829-17.57c-0.021-25.199-0.011-50.39-0.011-75.59c0.021,0,0.04,0,0.062,0
				c0-25.28-0.021-50.55,0-75.83c0.01-9.66,6.83-17.16,16.21-17.37c10.63-0.23,21.278-0.18,31.91-0.01
				c7.26,0.12,13.13,4.58,15.329,11.37c0.631,1.94,0.859,4.07,0.899,6.12c0.19,8.7,0.26,17.42,0.33,26.13
				c0.01,1.34,0.36,2.04,1.91,1.97c2.55-0.12,5.108-0.09,7.67-0.01c1.45,0.05,2.05-0.51,2.03-1.93
				c-0.15-10.55,0.199-21.13-0.551-31.63c-0.83-11.67-12.471-23.01-24.069-23.49c-12.761-0.52-25.57-0.56-38.33-0.04
				c-12.21,0.49-23.87,12.34-24.83,24.48c-0.39,4.92-0.12,9.88-0.149,14.82c-0.091,13.99-0.261,27.98-0.271,41.97
				c-0.01,10.39,0.271,20.78,0.25,31.17c-0.03,22.79-0.22,45.581-0.26,68.37c-0.03,16.471,13,29.381,29.398,29.33
				c10.08-0.04,20.15-0.06,30.23-0.068C1293.99,315.721,1306.87,302.891,1306.92,287.21z"/>
			<path fill="#FFFFFF" d="M1306.92,262.73c0.01,8.158,0.03,16.318,0,24.479c-0.05,15.68-12.93,28.51-28.6,28.521
				c-10.08,0.01-20.15,0.028-30.23,0.068c-16.398,0.051-29.43-12.859-29.398-29.33c0.04-22.789,0.229-45.58,0.26-68.37
				c0.02-10.39-0.26-20.78-0.25-31.17c0.01-13.99,0.18-27.98,0.27-41.97c0.03-4.94-0.238-9.9,0.15-14.82
				c0.96-12.14,12.62-23.99,24.83-24.48c12.76-0.52,25.568-0.48,38.33,0.04c11.6,0.48,23.238,11.82,24.068,23.49
				c0.75,10.5,0.4,21.08,0.552,31.63c0.02,1.42-0.58,1.98-2.03,1.93c-2.562-0.08-5.12-0.11-7.67,0.01
				c-1.551,0.07-1.9-0.63-1.91-1.97c-0.07-8.71-0.141-17.43-0.33-26.13c-0.04-2.05-0.27-4.18-0.9-6.12
				c-2.198-6.79-8.068-11.25-15.328-11.37c-10.632-0.17-21.28-0.22-31.91,0.01c-9.381,0.21-16.2,7.71-16.21,17.37
				c-0.021,25.28,0,50.55,0,75.83c-0.021,0-0.04,0-0.062,0c0,25.2-0.01,50.391,0.01,75.59c0.012,8.682,5.5,15.631,13.83,17.57
				c1.15,0.26,2.37,0.34,3.562,0.34c10.08,0.021,20.148,0,30.229-0.02c9.892-0.012,17.392-8.512,16.96-18.352
				c-0.37-8.529,0.091-17.1,0.16-25.648c0.01-1.182,0.44-1.711,1.71-1.67c2.642,0.078,5.28-0.062,7.92,0.09
				c0.61,0.029,1.48,0.77,1.7,1.38C1306.97,260.59,1306.91,261.7,1306.92,262.73z"/>
			<path fill="#4CB1FF" d="M1125.79,143.58c1.89,2.6,2.29,5.51,1.21,8.43c-1.311,3.51-2.939,6.91-4.53,10.31
				c-15.38,32.87-30.778,65.72-46.148,98.6c-0.63,1.33-0.99,2.79-1.48,4.2c1.4-0.21,2.812-0.351,4.19-0.62
				c6.58-1.29,13.16-2.609,19.738-3.9c0.521-0.1,1.07-0.09,1.61-0.129c-0.16,0.579-0.18,1.26-0.5,1.721
				c-3.62,5.18-7.26,10.34-10.938,15.47c-30.711,42.83-61.432,85.64-92.142,128.47c-15.42,21.51-30.83,43.04-46.27,64.53
				c-1.061,1.479-2.36,2.8-3.551,4.18c0.53-1.569,0.9-3.22,1.601-4.72c6.64-14.18,13.34-28.34,20.02-42.5
				c9.13-19.38,18.24-38.76,27.38-58.13c9.011-19.07,18.061-38.13,27.091-57.2c2.39-5.061,4.77-10.12,7.1-15.2
				c0.35-0.75,0.36-1.64,0.53-2.479V294.6c-0.38,0.041-0.771,0.062-1.15,0.102c-0.39,0.029-0.77,0.08-1.13,0.18
				c-6.979,1.98-13.96,4-20.939,6.021c-2.609,0.75-2.851,0.619-2.171-2.07c2.82-11.15,5.69-22.271,8.591-33.391
				c11.989-45.949,24.021-91.891,35.989-137.851c1.53-5.86,2.771-11.8,4.15-17.69c0.29-0.19,0.59-0.37,0.88-0.56
				c1.83,0.2,3.65,0.41,5.48,0.58c8.028,0.76,16.05,1.61,23.709,4.4c12.529,4.57,23.101,12.18,32.971,20.939
				c1.83,1.63,3.92,2.97,5.89,4.45C1123.91,141,1124.84,142.29,1125.79,143.58z"/>
			<path fill="#464747" d="M1121.83,1.23c1.75-0.07,2.1,0.26,1.16,1.9c-4,6.92-7.98,13.85-11.801,20.87
				c-6.449,11.87-12.591,23.9-16.561,36.88c-0.89,2.9-1.52,5.88-2.229,8.83c-0.98,4.09-0.19,7.92,1.68,11.61
				c8.979,17.75,17.96,35.5,26.91,53.27c0.81,1.63,1.318,3.41,1.979,5.12c-1.97-1.48-4.06-2.82-5.89-4.45
				c-9.87-8.76-20.44-16.37-32.97-20.94c-7.66-2.79-15.682-3.64-23.71-4.4c-1.83-0.17-3.65-0.38-5.48-0.58
				c6.01-19.09,14.94-36.79,25.36-53.81c10.01-16.34,19.87-32.76,29.729-49.19c0.53-0.87,0.86-1.85,1.182-2.83
				c0.198-0.6,0.38-1.19,0.6-1.77h-0.01c-1.42-0.06-2.83-0.13-4.25-0.2c-0.562-0.02-1.11-0.06-1.67-0.09
				c2.6-0.07,5.21-0.16,7.81-0.19C1116.39,1.23,1119.12,1.33,1121.83,1.23z"/>
			<path fill="#040303" d="M1107.53,1.54c1.42,0.07,2.83,0.14,4.25,0.2c-0.21,0.58-0.4,1.17-0.59,1.77
				c-0.32,0.98-0.65,1.96-1.182,2.83c-9.858,16.43-19.72,32.85-29.729,49.19c-10.42,17.02-19.352,34.72-25.36,53.81
				c-0.29,0.19-0.59,0.37-0.88,0.56c-7.65,0.4-15.33,0.49-22.94,1.28c-16.43,1.72-32.289,6.11-47.93,11.28
				c6.061-6.13,12.07-12.33,18.22-18.38c10.82-10.65,21.74-21.21,32.62-31.82c23.17-22.61,46.34-45.22,69.49-67.86
				c0.9-0.87,1.58-1.96,2.36-2.95C1106.42,1.48,1106.97,1.52,1107.53,1.54z"/>
			<path fill="#0464B6" d="M1054.04,109.9c-1.38,5.89-2.62,11.83-4.15,17.69c-11.97,45.96-24,91.9-35.988,137.852
				c-2.9,11.119-5.78,22.25-8.592,33.39c-0.68,2.688-0.438,2.819,2.172,2.069c6.979-2.021,13.96-4.039,20.938-6.021
				c0.36-0.101,0.74-0.149,1.13-0.18c0.38-0.04,0.771-0.05,1.15-0.091c-0.17,0.841-0.181,1.729-0.53,2.479
				c-2.33,5.08-4.71,10.142-7.1,15.2c-9.03,19.07-18.08,38.13-27.09,57.2c-9.141,19.37-18.25,38.75-27.381,58.13
				c-6.68,14.16-13.38,28.32-20.02,42.5c-0.7,1.5-1.07,3.148-1.6,4.72c-0.471,0.63-0.94,1.25-1.4,1.87
				c-0.01-0.82-0.12-1.65-0.01-2.46c0.979-7.04,1.989-14.08,3.01-21.12c2.83-19.37,5.64-38.74,8.49-58.109
				c3.109-21.189,6.26-42.369,9.38-63.561c0.99-6.72,1.92-13.439,2.939-20.16c0.24-1.568-0.25-1.66-1.63-1.359
				c-5.55,1.189-11.13,2.229-16.68,3.381c-1.561,0.318-2.32,0.34-1.96-1.75c3.57-20.461,7.01-40.94,10.55-61.41
				c4.061-23.54,8.18-47.07,12.26-70.61c3.051-17.63,6.061-35.27,9.19-52.89c0.26-1.47,1.35-2.8,2.05-4.2
				c15.64-5.17,31.5-9.56,47.93-11.28C1038.71,110.39,1046.39,110.3,1054.04,109.9z"/>
			<path fill="#0464B6" d="M1030.7,294.6v0.012c-0.38,0.039-0.771,0.05-1.15,0.09C1029.93,294.66,1030.32,294.641,1030.7,294.6z"/>
			<path fill="#0464B6" d="M1013.9,265.439c-2.9,11.119-5.771,22.24-8.592,33.391C1008.12,287.689,1011,276.561,1013.9,265.439z"/>
			<path fill="#A1A0A0" d="M841.42,256.74c0.03,6.47,0.3,12.949,0.23,19.41c-0.07,5.5,0.02,11.08-0.841,16.479
				c-2.35,14.66-14.22,25.73-29.02,26.46c-12.43,0.61-24.95,0.57-37.38-0.05c-13.08-0.66-24.891-12-27.53-25.38
				c-0.58-2.96-0.89-6.021-0.9-9.04c-0.069-24.88-0.04-49.75-0.04-74.63c0-24.96-0.029-49.91,0.021-74.87
				c0.02-7.98,2.19-15.32,7.38-21.55c6.061-7.27,13.89-11.34,23.28-11.75c10.37-0.44,20.78-0.44,31.17-0.35
				c17.47,0.14,30.09,10.771,33.29,27.89c0.41,2.18,0.47,4.45,0.47,6.68c0,9.42-0.1,18.85-0.13,28.28c-0.01,1.51-0.72,1.83-2.1,1.81
				c-4.961-0.07-9.92-0.11-14.87,0.02c-1.92,0.05-2.23-0.7-2.221-2.38c0.04-10.15,0.091-20.31-0.079-30.47
				c-0.12-7.53-5.15-12.33-12.69-12.36c-10.56-0.04-21.11-0.04-31.67,0c-6.63,0.02-11.7,4.69-12.351,11.33
				c-0.22,2.22-0.35,4.46-0.35,6.69c-0.02,47.51-0.02,95.02-0.01,142.54c0,2.29-0.04,4.62,0.26,6.88
				c0.98,7.37,5.74,11.891,13.17,12.04c10.24,0.2,20.48,0.21,30.71-0.03c8.08-0.188,13.03-5.688,13.04-13.84
				c0.01-9.67,0.061-19.35-0.04-29.029c-0.02-2.021,0.391-2.819,2.61-2.729c4.79,0.17,9.6,0.09,14.4,0.021
				C840.67,254.79,841.42,255.07,841.42,256.74z M837.91,286.84c0.01-7.92,0.01-15.84-0.01-23.76c-0.011-1.11-0.271-2.221-0.29-3.33
				c-0.03-1.29-0.7-1.58-1.851-1.561c-2.479,0.061-4.97,0.131-7.439-0.021c-1.61-0.09-2.141,0.66-2.221,2.04
				c-0.05,0.8-0.06,1.6-0.06,2.4c-0.01,8.229,0.08,16.47-0.03,24.709c-0.13,9.181-7.689,16.529-16.819,16.541
				c-10.07,0.02-20.15,0.02-30.23,0.029c-9,0.021-16.66-6.91-17.32-15.939c-0.279-3.891-0.05-7.811-0.05-11.721
				c0-23.189,0-46.391,0-69.589c0-24-0.03-48,0.01-71.99c0.021-10.18,6.95-17.36,17.051-17.51c10.239-0.15,20.479-0.16,30.72,0.02
				c9.45,0.17,16.45,7.3,16.59,16.71c0.12,8,0.06,16,0.08,24c0,4.86,0,4.86,4.69,4.86c0.64,0,1.279,0,1.92,0c5.26,0,5.3,0,5.25-5.3
				c-0.051-5.03-0.21-10.07-0.28-15.1c-0.05-3.98,0.33-8-0.101-11.94c-1.56-14.19-14.079-25.18-28.38-25.18
				c-10-0.01-20-0.04-30,0.03c-2.22,0.01-4.489,0.18-6.649,0.68c-13.74,3.16-22.82,14.67-22.83,28.78c0,25.28,0,50.55,0,75.83
				c0,25.36-0.01,50.72,0.01,76.081c0.01,16.311,12.98,29.221,29.26,29.181c10-0.021,20-0.05,30-0.06
				C825.04,315.721,837.88,302.93,837.91,286.84z"/>
			<path fill="#FFFFFF" d="M837.9,263.08c0.02,7.92,0.02,15.84,0.01,23.76c-0.03,16.09-12.87,28.881-28.98,28.891
				c-10,0.011-20,0.039-30,0.061c-16.279,0.04-29.25-12.87-29.26-29.18c-0.02-25.36-0.01-50.72-0.01-76.081c0-25.28,0-50.55,0-75.83
				c0.01-14.11,9.09-25.62,22.83-28.78c2.16-0.5,4.43-0.67,6.649-0.68c10-0.07,20-0.04,30-0.03c14.301,0,26.82,10.99,28.381,25.18
				c0.43,3.94,0.05,7.96,0.1,11.94c0.07,5.03,0.229,10.07,0.28,15.1c0.05,5.3,0.01,5.3-5.25,5.3c-0.641,0-1.28,0-1.92,0
				c-4.69,0-4.69,0-4.69-4.86c-0.02-8,0.04-16-0.08-24c-0.14-9.41-7.14-16.54-16.59-16.71c-10.24-0.18-20.48-0.17-30.72-0.02
				c-10.101,0.15-17.03,7.33-17.051,17.51c-0.039,23.99-0.01,47.99-0.01,71.99c0,23.2,0,46.4,0,69.59
				c0,3.908-0.229,7.828,0.05,11.72c0.66,9.03,8.32,15.96,17.32,15.938c10.08-0.01,20.16-0.01,30.23-0.029
				c9.13-0.01,16.689-7.359,16.819-16.539c0.11-8.24,0.021-16.48,0.03-24.711c0-0.801,0.01-1.601,0.06-2.399
				c0.08-1.38,0.61-2.13,2.221-2.04c2.47,0.15,4.96,0.08,7.439,0.021c1.15-0.021,1.82,0.27,1.851,1.56
				C837.63,260.859,837.89,261.97,837.9,263.08z"/>
			<path fill="#A1A0A0" d="M712.14,316.311c0.011,2.301-0.58,3.01-2.909,2.91c-4.391-0.181-8.801-0.091-13.19-0.029
				c-1.44,0.02-2.16-0.23-2.17-1.94c-0.04-7.04-0.32-14.06-0.37-21.101c-0.08-13.271-0.04-26.551-0.07-39.83
				c-0.09-31.989-0.27-63.979-0.26-95.969c0-18.55,0.29-37.1,0.45-55.65c0.03-3.26,0.05-3.26,3.4-3.27c3.84,0,7.68,0,11.52,0
				c3.55,0,3.55,0.01,3.55,3.45c0,35.12,0,70.24,0,105.35C712.09,245.59,712.07,280.95,712.14,316.311z M708.78,218.14
				c0-26.87,0.04-53.75-0.021-80.63c-0.02-9.83-0.31-19.66-0.37-29.49c-0.01-2.02-0.689-2.62-2.64-2.48
				c-2.23,0.16-4.48,0.13-6.71,0.01c-1.69-0.1-2.19,0.5-2.2,2.17c-0.08,10.71-0.39,21.43-0.37,32.14
				c0.061,41.83,0.22,83.66,0.34,125.48c0.03,8.96-0.01,17.92,0.07,26.881c0.07,7.189,0.24,14.391,0.47,21.569
				c0.021,0.71,0.74,1.979,1.2,2.01c2.771,0.19,5.561,0.07,8.34,0.12c1.29,0.021,1.681-0.74,1.73-1.79
				c0.09-1.92,0.16-3.84,0.16-5.76C708.79,278.3,708.78,248.22,708.78,218.14z"/>
			<path fill="#FFFFFF" d="M708.76,137.51c0.061,26.88,0.021,53.76,0.021,80.63c0,30.08,0.01,60.16,0,90.23
				c0,1.92-0.07,3.84-0.16,5.76c-0.05,1.05-0.44,1.812-1.73,1.79c-2.779-0.05-5.569,0.07-8.34-0.12c-0.46-0.03-1.18-1.3-1.2-2.01
				c-0.229-7.181-0.399-14.38-0.47-21.569c-0.08-8.961-0.04-17.921-0.069-26.881c-0.12-41.82-0.28-83.65-0.341-125.48
				c-0.02-10.71,0.29-21.43,0.37-32.14c0.01-1.67,0.51-2.27,2.2-2.17c2.229,0.12,4.479,0.15,6.71-0.01
				c1.95-0.14,2.63,0.46,2.64,2.48C708.45,117.85,708.74,127.68,708.76,137.51z"/>
			<path fill="#A1A0A0" d="M659.85,191.59c0.021,14.68-6.17,25.52-19.659,31.8c-1.94,0.9-2.46,1.82-1.931,4
				c6.36,26.23,12.601,52.49,18.87,78.74c0.87,3.649,1.66,7.32,2.59,10.95c0.42,1.62-0.029,2.141-1.689,2.12
				c-5.601-0.08-11.2-0.08-16.8,0c-1.511,0.021-2.091-0.54-2.391-1.95c-3.17-14.84-6.38-29.67-9.59-44.49
				c-3.2-14.83-6.44-29.648-9.58-44.49c-0.32-1.52-0.99-1.93-2.42-1.92c-10.55,0.04-21.11,0.08-31.67-0.03
				c-2.36-0.02-2.061,1.34-2.061,2.78c0.011,28.8,0,57.6,0,86.39c0,0.56-0.06,1.13,0.011,1.68c0.21,1.6-0.49,2.061-2.04,2.03
				c-4.72-0.08-9.44-0.13-14.16,0.02c-2.02,0.062-2.57-0.579-2.53-2.56c0.12-6.24,0.05-12.48,0.05-18.721
				c0-29.189,0-58.391,0-87.581c0-35.28,0.021-70.55-0.05-105.82c-0.01-2.14,0.57-3.09,2.71-3.01c0.71,0.03,1.431-0.09,2.15-0.09
				c18.72-0.01,37.43-0.03,56.15,0c16.75,0.03,29.859,10.23,33.289,25.91c0.471,2.17,0.7,4.44,0.711,6.65
				C659.87,153.2,659.82,172.4,659.85,191.59z M656.45,193.22c0.06-19.28,0.06-38.55-0.021-57.83c-0.02-5.47-0.92-10.83-3.779-15.66
				c-5.83-9.83-14.69-14.41-25.9-14.48c-17.92-0.13-35.83-0.04-53.75-0.03c-1.03,0.01-2.061,0.23-3.1,0.26
				c-1.311,0.03-1.75,0.62-1.761,1.93c-0.05,4.39-0.33,8.78-0.319,13.18c0.069,54.06,0.18,108.12,0.279,162.18
				c0,4.24,0.011,8.48,0.08,12.722c0.101,6.069,0.29,12.14,0.36,18.21c0.02,1.398,0.59,1.779,1.88,1.75
				c2.4-0.07,4.811-0.141,7.2,0.02c1.97,0.131,2.58-0.479,2.57-2.52c-0.08-14.561-0.04-29.11-0.04-43.67
				c0-14.48,0.029-28.96-0.04-43.44c-0.011-2.14,0.59-2.83,2.819-2.81c12.08,0.11,24.16,0.12,36.24-0.01
				c2.32-0.02,3.22,0.73,3.69,2.91c4.609,21.709,9.3,43.4,13.979,65.1c1.5,6.939,3,13.89,4.561,20.818
				c0.76,3.36,1.68,4.07,5.149,3.98c2.23-0.061,4.45-0.35,6.681-0.5c1.81-0.12,2.359-0.74,1.88-2.73
				c-7.03-29.02-13.96-58.068-20.9-87.12c-0.85-3.55-1.46-2.96,2.25-4.29C648.56,216.89,656.41,205.99,656.45,193.22z"/>
			<path fill="#FFFFFF" d="M656.43,135.39c0.08,19.28,0.08,38.55,0.021,57.83c-0.04,12.771-7.891,23.67-19.99,27.97
				c-3.71,1.33-3.1,0.74-2.25,4.29c6.94,29.05,13.87,58.1,20.9,87.12c0.479,1.99-0.07,2.61-1.88,2.73
				c-2.23,0.15-4.45,0.439-6.681,0.5c-3.47,0.09-4.39-0.62-5.149-3.98c-1.561-6.93-3.061-13.879-4.561-20.818
				c-4.68-21.7-9.37-43.391-13.979-65.1c-0.471-2.18-1.37-2.93-3.69-2.91c-12.08,0.13-24.16,0.12-36.24,0.01
				c-2.229-0.021-2.83,0.67-2.819,2.81c0.069,14.479,0.04,28.96,0.04,43.44c0,14.56-0.04,29.109,0.04,43.67
				c0.01,2.04-0.601,2.648-2.57,2.52c-2.39-0.16-4.8-0.09-7.2-0.02c-1.29,0.029-1.86-0.352-1.88-1.75
				c-0.07-6.07-0.26-12.141-0.36-18.21c-0.069-4.24-0.08-8.48-0.08-12.722c-0.1-54.06-0.21-108.12-0.279-162.18
				c-0.011-4.4,0.27-8.79,0.319-13.18c0.011-1.31,0.45-1.9,1.761-1.93c1.039-0.03,2.069-0.25,3.1-0.26
				c17.92-0.01,35.83-0.1,53.75,0.03c11.21,0.07,20.07,4.65,25.9,14.48C655.51,124.56,656.41,129.92,656.43,135.39z M644.41,192.63
				c0.05-9.59,0.01-19.19,0.01-28.79c0-9.68,0.03-19.36-0.01-29.04c-0.03-9.25-5.061-15.76-13.62-17.46
				c-2.25-0.45-4.61-0.53-6.91-0.53c-13.68-0.05-27.36,0.01-41.04-0.07c-2.04-0.01-2.59,0.72-2.609,2.62
				c-0.061,6.64-0.37,13.26-0.36,19.89c0.04,18.31,0.18,36.62,0.29,54.93c0.03,4.56,0.12,9.12,0.16,13.68
				c0.02,1.86,0.55,2.84,2.779,2.82c14.95-0.09,29.91,0.09,44.87-0.16c2.971-0.05,6.221-1.06,8.8-2.56
				C642.51,204.65,644.37,198.97,644.41,192.63z"/>
			<path fill="#A1A0A0" d="M644.42,163.84c0,9.6,0.04,19.2-0.01,28.79c-0.04,6.34-1.9,12.02-7.641,15.33
				c-2.58,1.5-5.83,2.51-8.8,2.56c-14.96,0.25-29.92,0.07-44.87,0.16c-2.229,0.02-2.76-0.96-2.779-2.82
				c-0.04-4.56-0.131-9.12-0.16-13.68c-0.11-18.31-0.25-36.62-0.29-54.93c-0.01-6.63,0.3-13.25,0.36-19.89
				c0.02-1.9,0.569-2.63,2.609-2.62c13.68,0.08,27.36,0.02,41.04,0.07c2.3,0,4.66,0.08,6.91,0.53c8.56,1.7,13.59,8.21,13.62,17.46
				C644.45,144.48,644.42,154.16,644.42,163.84z M640.82,163.89c0-9.91,0.05-19.83-0.051-29.74c-0.02-1.87-0.319-3.87-1.039-5.57
				c-2.45-5.74-7.15-8.16-13.19-8.17c-13.271-0.05-26.54-0.03-39.81-0.01c-3.141,0-3.15,0.06-3.15,3.19c0,26.79,0,53.57,0,80.35
				c0,0.48,0.04,0.96,0,1.44c-0.11,1.25,0.479,1.66,1.689,1.67c2.95,0.03,5.9,0.26,8.851,0.24c11.03-0.05,22.06-0.18,33.08-0.25
				c8.38-0.06,13.6-5.25,13.609-13.65C640.83,183.56,640.82,173.73,640.82,163.89z"/>
			<path fill="#A1A0A0" d="M535.17,101.87c2.19,0.01,2.89,0.75,2.8,2.96c-0.17,4.47-0.149,8.96,0,13.43
				c0.061,2.05-0.66,2.56-2.609,2.55c-10.87-0.05-21.75,0.09-32.63,0c-2.23-0.02-2.78,0.63-2.771,2.81
				c0.07,32.15,0.04,64.31,0.04,96.47c0,32.07-0.02,64.15,0.06,96.23c0,2.31-0.6,3-2.92,2.898c-4.47-0.18-8.96-0.189-13.43,0.012
				c-2.42,0.108-3.17-0.73-2.82-2.972c0.08-0.55,0.011-1.12,0.011-1.68c0-63.431,0-126.87,0-190.3c0-3.86,0.409-3.4-3.5-3.41
				c-10.721-0.02-21.44-0.05-32.16,0.04c-1.91,0.01-2.46-0.56-2.41-2.44c0.12-4.64,0.15-9.28-0.01-13.92
				c-0.07-1.95,0.729-2.53,2.42-2.56c4.87-0.09,9.75-0.23,14.63-0.26c16.79-0.12,33.58-0.27,50.37-0.27
				C518.55,101.46,526.86,101.8,535.17,101.87z M531.84,117.12c2.15,0.01,2.851-0.71,2.73-2.75c-0.12-2-0.09-4-0.011-6
				c0.091-2.13-0.72-3.04-2.939-2.88c-1.66,0.11-3.34-0.27-5.01-0.26c-25.271,0.12-50.53,0.27-75.79,0.42
				c-0.57,0.01-1.12,0.05-1.681,0.05c-1.84-0.01-2.779,0.8-2.71,2.74c0.07,2.07,0.12,4.16-0.02,6.23
				c-0.141,1.92,0.58,2.45,2.46,2.44c10.8-0.08,21.6-0.04,32.39-0.04c3.021,0,3.021,0.01,3.021,2.94c0,32.07,0,64.14,0,96.21
				c0,29.681,0,59.351,0,89.021c0,2.64,0.12,5.289-0.04,7.92c-0.11,1.869,0.59,2.35,2.33,2.24c2.229-0.142,4.479-0.021,6.72-0.041
				c3.53-0.029,3.26,0.471,3.26-3.159c0.03-64.062,0.061-128.13,0.03-192.19c0-2.27,0.5-2.97,2.87-2.94
				C510.24,117.18,521.04,117.03,531.84,117.12z"/>
			<path fill="#FFFFFF" d="M534.57,114.37c0.12,2.04-0.58,2.76-2.73,2.75c-10.8-0.09-21.6,0.06-32.39-0.05
				c-2.37-0.03-2.87,0.67-2.87,2.94c0.03,64.06,0,128.131-0.03,192.19c0,3.63,0.271,3.13-3.26,3.159
				c-2.24,0.021-4.49-0.101-6.72,0.041c-1.74,0.108-2.44-0.37-2.33-2.24c0.16-2.63,0.04-5.28,0.04-7.92c0-29.67,0-59.34,0-89.02
				c0-32.07,0-64.14,0-96.21c0-2.93,0-2.94-3.021-2.94c-10.79,0-21.59-0.04-32.39,0.04c-1.88,0.01-2.6-0.52-2.46-2.44
				c0.14-2.07,0.09-4.16,0.02-6.23c-0.069-1.94,0.87-2.75,2.71-2.74c0.561,0,1.11-0.04,1.681-0.05c25.26-0.15,50.52-0.3,75.79-0.42
				c1.67-0.01,3.35,0.37,5.01,0.26c2.22-0.16,3.03,0.75,2.94,2.88C534.48,110.37,534.45,112.37,534.57,114.37z"/>
			<path fill="#A1A0A0" d="M416.87,261.13c0.03,8,0.07,16,0,24c-0.07,7.771-1.9,15.05-6.69,21.351
				c-6.43,8.461-15.199,12.619-25.63,12.939c-10.39,0.32-20.81,0.38-31.189-0.01c-12.28-0.46-21.891-5.939-28.03-16.852
				c-2.93-5.209-4.16-10.908-4.17-16.81c-0.04-50.16-0.04-100.31-0.01-150.46c0.01-17.09,11-30.36,27.659-33.24
				c4.061-0.7,8.28-0.66,12.431-0.66c8.55,0.01,17.109,0.04,25.649,0.4c15.53,0.67,29.12,14.41,29.63,29.97
				c0.33,10.22,0.28,20.46,0.351,30.69c0.02,3.56-0.101,3.6-3.601,3.6c-4.479,0-8.96-0.06-13.439,0.03
				c-1.55,0.03-2.101-0.44-2.11-2.03c-0.04-9.67-0.189-19.34-0.25-29.01c-0.01-3.01-0.41-5.86-2.029-8.5
				c-2.19-3.56-5.351-5.53-9.48-5.56c-11.27-0.1-22.55-0.12-33.83-0.01c-5.79,0.06-10.88,5.09-11.47,10.96
				c-0.101,1.03-0.09,2.08-0.09,3.12c0,25.03,0,50.07,0,75.11c0,24.72-0.011,49.43,0.01,74.149c0,1.67-0.01,3.381,0.29,5.021
				c1.359,7.229,5.66,10.89,13.74,11.08c9.75,0.229,19.52,0.25,29.27,0.01c8.76-0.22,13.57-5.521,13.58-14.319
				c0.01-9.601,0.04-19.199-0.04-28.801c-0.01-1.83,0.41-2.51,2.38-2.46c4.88,0.149,9.76,0.11,14.64,0.021
				c1.521-0.029,2.211,0.41,2.211,1.971C416.66,258.27,416.87,259.7,416.87,261.13z M410.98,162.76c1.699,0.09,2.18-0.49,2.159-2.17
				c-0.069-9.11,0.2-18.24-0.09-27.35c-0.34-10.53-5.37-18.54-14.31-24.04c-4.61-2.84-9.7-4.02-15.101-4
				c-9.899,0.02-19.8-0.03-29.699,0.03c-2.061,0.02-4.171,0.21-6.181,0.66c-13.43,3.02-22.87,14.77-22.89,28.54
				c-0.04,25.36-0.01,50.72-0.01,76.07c0,25.27-0.011,50.55,0.01,75.82c0.01,16.688,13.07,29.58,29.75,29.479
				c9.68-0.05,19.36-0.029,29.04,0c16.479,0.061,29.45-12.779,29.45-29.21c0-7.92,0.01-15.84-0.011-23.76
				c0-0.95-0.149-1.91-0.189-2.86c-0.05-1.279-0.62-1.789-1.95-1.729c-2.4,0.09-4.81,0.14-7.2-0.021c-1.95-0.13-2.6,0.44-2.569,2.5
				c0.109,8.711,0.079,17.432,0.04,26.15c-0.061,9.648-7.671,17.061-17.33,17.029c-9.841-0.029-19.67,0.041-29.511,0
				c-7.58-0.021-12.85-3.76-16.109-10.459c-2.04-4.182-1.54-8.672-1.53-13.15c0.07-48.07,0.15-96.14-0.04-144.21
				c-0.04-10.77,6.63-19.33,19.09-19.05c9.44,0.21,18.88,0.02,28.32,0.05c9.47,0.04,17.06,7.61,17.11,17.07
				c0.029,5.44-0.04,10.88-0.04,16.31c-0.011,3.28,0.029,6.56,0.06,9.84c0.01,1.67,0.53,2.64,2.54,2.47
				C406.17,162.58,408.59,162.63,410.98,162.76z"/>
			<path fill="#FFFFFF" d="M413.14,160.59c0.021,1.68-0.46,2.26-2.159,2.17c-2.391-0.13-4.811-0.18-7.19,0.01
				c-2.01,0.17-2.53-0.8-2.54-2.47c-0.03-3.28-0.07-6.56-0.06-9.84c0-5.43,0.069-10.87,0.04-16.31
				c-0.051-9.46-7.641-17.03-17.11-17.07c-9.44-0.03-18.88,0.16-28.32-0.05c-12.46-0.28-19.13,8.28-19.09,19.05
				c0.19,48.07,0.11,96.14,0.04,144.21c-0.01,4.479-0.51,8.97,1.53,13.149c3.26,6.699,8.529,10.439,16.109,10.461
				c9.841,0.039,19.67-0.03,29.511,0c9.659,0.028,17.27-7.381,17.33-17.03c0.039-8.72,0.069-17.44-0.04-26.15
				c-0.03-2.06,0.619-2.63,2.569-2.5c2.391,0.16,4.8,0.11,7.2,0.021c1.33-0.062,1.9,0.45,1.95,1.729
				c0.04,0.95,0.189,1.91,0.189,2.86c0.021,7.92,0.011,15.84,0.011,23.76c0,16.43-12.971,29.271-29.45,29.21
				c-9.68-0.03-19.36-0.05-29.04,0c-16.68,0.101-29.74-12.79-29.75-29.479c-0.021-25.271-0.01-50.549-0.01-75.819
				c0-25.35-0.03-50.71,0.01-76.07c0.02-13.77,9.46-25.52,22.89-28.54c2.01-0.45,4.12-0.64,6.181-0.66
				c9.899-0.06,19.8-0.01,29.699-0.03c5.4-0.021,10.49,1.16,15.101,4c8.939,5.5,13.97,13.51,14.31,24.04
				C413.34,142.35,413.07,151.48,413.14,160.59z"/>
			<path fill="#A1A0A0" d="M295.5,117.93c0.07,2.11-0.54,2.7-2.67,2.69c-18.24-0.09-36.47-0.05-54.71-0.05c-3.4,0-3.47,0-3.5,3.4
				c-0.17,22.311-0.33,44.61-0.46,66.91c-0.02,3.86,0.13,3.94,4.1,3.95c11.9,0.02,23.79,0.05,35.69-0.01l0.01,2.98
				c-0.01,0-0.03,0-0.04,0c-13.43,0.1-26.87,0.03-40.31,0.08c-1.71,0.01-2.55-0.24-2.55-2.31c0.07-25.43,0.07-50.86,0.01-76.3
				c0-1.87,0.66-2.28,2.37-2.24c4.24,0.1,8.48,0.04,12.72,0.04c14.23,0,28.47-0.03,42.71,0.03c1.8,0.01,2.63-0.35,2.46-2.36
				c-0.17-2.14-0.2-4.33,0.01-6.47c0.22-2.29-0.7-2.75-2.82-2.74c-22.23,0.07-44.47,0.05-66.7,0.05c-3.03,0-3.03,0-3.03,3.15
				c0,33.92,0,67.83,0,101.74c0,34.07,0.02,68.14-0.05,102.21c0,2.25,0.59,3.119,2.91,3.119c5.51,0.03,11.02,0.391,16.53,0.37v3
				c-6.54,0-13.08,0-19.62,0c-3.15,0-3.15,0-3.15-3.05c0-35.271,0-70.54,0-105.81c0-35.19,0-70.38,0-105.57c0-2.97,0-2.97,2.97-2.97
				c24.71,0,49.43,0,74.14,0c2.86,0,2.91,0.03,2.92,2.97C295.47,109.13,295.34,113.54,295.5,117.93z"/>
			<path fill="#A1A0A0" d="M292.56,300.38c2.24-0.021,2.98,0.69,2.91,2.83c-0.13,4.55-0.2,9.101-0.18,13.649
				c0,1.891-0.76,2.381-2.59,2.351c-6.72-0.101-13.44-0.04-20.16-0.04c-11.45,0-22.91,0-34.36,0v-3
				c13.42-0.029,26.85-0.189,40.28-0.32c3.52-0.039,7.03-0.158,10.55-0.209c1.93-0.029,2.9-0.721,2.62-2.881
				c-0.22-1.729-0.04-3.51-0.04-5.27c0-3.551,0-3.551-3.44-3.551c-17.84,0-35.67,0-53.51-0.01c-3.49-0.011-3.41,0.529-3.48-3.271
				c-0.04-2.392-0.34-4.78-0.33-7.17c0.12-26.87,0.3-53.73,0.39-80.59c0.01-2.16,0.8-2.67,2.83-2.64
				c7.28,0.11,14.56,0.05,21.83,0.04c6.24-0.01,12.48-0.05,18.72-0.05c1.11,0,2.12,0.01,2.1-1.54c-0.03-2.79-0.01-5.59-0.02-8.39
				c0-1.84-0.76-2.52-2.72-2.52l-0.01-2.98c1.06,0,2.12,0,3.18-0.01c2.09-0.01,2.75,0.55,2.67,2.69c-0.18,4.63-0.15,9.28-0.01,13.91
				c0.05,1.86-0.6,2.26-2.34,2.25c-13.2-0.07-26.39-0.04-39.59-0.04c-3.17,0-3.21,0.01-3.23,3.07c-0.16,24.86-0.3,49.73-0.41,74.59
				c-0.01,2.47,0.3,4.939,0.32,7.41c0.01,1.379,0.57,1.779,1.87,1.76c3.84-0.061,7.68-0.021,11.52-0.021
				C262.81,300.43,277.68,300.48,292.56,300.38z"/>
			<path fill="#FFFFFF" d="M291.63,312.76c0.28,2.16-0.69,2.852-2.62,2.881c-3.52,0.051-7.03,0.17-10.55,0.209
				c-13.43,0.131-26.86,0.291-40.28,0.32c-5.51,0.021-11.02-0.34-16.53-0.37c-2.32,0-2.91-0.87-2.91-3.12
				c0.07-34.068,0.05-68.14,0.05-102.208c0-33.91,0-67.82,0-101.74c0-3.15,0-3.15,3.03-3.15c22.23,0,44.47,0.02,66.7-0.05
				c2.12-0.01,3.04,0.45,2.82,2.74c-0.21,2.14-0.18,4.33-0.01,6.47c0.17,2.01-0.66,2.37-2.46,2.36
				c-14.24-0.06-28.48-0.03-42.71-0.03c-4.24,0-8.48,0.06-12.72-0.04c-1.71-0.04-2.37,0.37-2.37,2.24
				c0.06,25.44,0.06,50.87-0.01,76.3c0,2.07,0.84,2.32,2.55,2.31c13.44-0.05,26.88,0.02,40.31-0.08c0.01,0,0.03,0,0.04,0
				c1.96,0,2.72,0.68,2.72,2.521c0.01,2.8-0.01,5.6,0.02,8.39c0.02,1.55-0.99,1.54-2.1,1.54c-6.24,0-12.48,0.04-18.72,0.05
				c-7.27,0.01-14.55,0.07-21.83-0.04c-2.03-0.03-2.82,0.48-2.83,2.64c-0.09,26.86-0.27,53.72-0.39,80.59
				c-0.01,2.39,0.29,4.778,0.33,7.17c0.07,3.8-0.01,3.26,3.48,3.271c17.84,0.01,35.67,0.01,53.51,0.01c3.44,0,3.44,0,3.44,3.551
				C291.59,309.25,291.41,311.029,291.63,312.76z"/>
			<path fill="#A1A0A0" d="M186.18,300.439c2.26-0.021,2.82,0.66,2.75,2.811c-0.15,4.641-0.1,9.279-0.01,13.92
				c0.02,1.58-0.5,2.03-2.07,2.03c-25.2-0.05-50.39-0.07-75.58,0.021c-2.65,0.01-2.29-1.541-2.29-3.131c0-35.189,0-70.37,0-105.56
				c-0.04,0-0.09,0-0.13,0c0-34.55-0.01-69.09,0-103.64c0-6.09-0.1-4.98,5-5.05c4-0.05,8,0.05,12-0.04
				c1.58-0.03,2.15,0.57,2.13,2.09c-0.04,1.83,0.08,3.67,0.08,5.51c0,62.62,0,125.24,0,187.85c0,3.6-0.38,3.23,3.18,3.24
				C149.55,300.5,167.87,300.529,186.18,300.439z M183.41,315.45c1.49,0.079,1.96-0.53,1.91-1.96c-0.09-2.15-0.02-4.32-0.02-6.471
				c-0.01-3.149-0.01-3.16-3.05-3.16c-18.32,0-36.63,0.011-54.95,0c-3.39,0-3.03,0.32-3.03-3.141
				c-0.01-63.82-0.01-127.64-0.01-191.47c0-0.72,0.2-1.52-0.06-2.13c-0.26-0.62-0.94-1.44-1.49-1.48c-2.3-0.16-4.63-0.07-6.95-0.07
				c-3,0-3,0-3,2.95c0,34.07,0,68.14,0,102.21c0,33.99,0.02,67.98-0.05,101.97c-0.01,2.24,0.62,2.79,2.8,2.779
				c20.71-0.08,41.43-0.051,62.14-0.051C179.57,315.43,181.5,315.359,183.41,315.45z"/>
			<path fill="#FFFFFF" d="M185.32,313.49c0.05,1.43-0.42,2.039-1.91,1.96c-1.91-0.091-3.84-0.021-5.76-0.021
				c-20.71,0-41.43-0.029-62.14,0.051c-2.18,0.01-2.81-0.541-2.8-2.78c0.07-33.99,0.05-67.98,0.05-101.97c0-34.07,0-68.14,0-102.21
				c0-2.95,0-2.95,3-2.95c2.32,0,4.65-0.09,6.95,0.07c0.55,0.04,1.23,0.86,1.49,1.48c0.26,0.61,0.06,1.41,0.06,2.13
				c0,63.83,0,127.65,0.01,191.47c0,3.46-0.36,3.142,3.03,3.142c18.32,0.01,36.63,0,54.95,0c3.04,0,3.04,0.01,3.05,3.158
				C185.3,309.17,185.23,311.34,185.32,313.49z"/>
			<path fill="#A1A0A0" d="M80.4,300.45c1.94-0.011,2.66,0.42,2.59,2.489c-0.17,4.471-0.1,8.949-0.08,13.431
				c0.01,1.71-0.58,2.729-2.46,2.78c-1.43,0.039-2.85,0.369-4.28,0.369c-23.52,0.029-47.03,0.021-70.55,0.021
				c-3.75,0-3.76,0-3.76-3.71c0-35.12,0-70.23,0-105.35c0-35.04,0.03-70.08-0.06-105.11c0-2.44,0.71-3.57,3.12-3.65
				c1.19-0.04,2.38-0.27,3.57-0.28c22.96-0.01,45.92-0.06,68.88,0.03c5.56,0.021,5.23-0.32,5.53,5.44c0.18,3.5-0.05,7.03,0.02,10.55
				c0.04,2.22-0.74,3-3.08,2.98c-18.32-0.1-36.64-0.01-54.96-0.1c-2.27-0.02-2.96,0.52-2.95,2.87c0.09,22.8,0.05,45.6,0.05,68.4
				c0,2.94,0.01,2.94,3.04,2.94c13.2,0,26.4,0.04,39.6-0.04c2.13-0.01,2.97,0.47,2.88,2.78c-0.18,4.63-0.13,9.28-0.01,13.92
				c0.04,1.82-0.39,2.48-2.37,2.46c-13.41-0.09-26.83,0.01-40.24-0.1c-2.25-0.01-2.96,0.47-2.96,2.86
				c0.09,27.11,0.09,54.23,0.01,81.349c-0.01,2.24,0.64,2.761,2.8,2.761C43.29,300.45,61.85,300.51,80.4,300.45z M77.38,117.08
				c1.31,0.03,1.89-0.37,1.84-1.77c-0.08-2.55-0.09-5.12-0.04-7.67c0.03-1.49-0.46-2.14-2.06-2.15c-4.47-0.03-8.94-0.33-13.41-0.32
				c-13.67,0.04-27.35,0.16-41.02,0.26c-4.32,0.04-8.64,0.09-12.96,0.22c-3.17,0.09-3.17,0.18-3.24,3.29
				c-0.05,2.71-0.25,5.42-0.27,8.13c-0.06,7.28-0.08,14.56-0.07,21.84c0.11,51.51,0.23,103.02,0.36,154.529
				c0.02,6.479,0.1,12.961,0.19,19.439c0.03,2.9,0.13,2.96,2.95,2.96c22.24,0,44.48,0,66.72,0c0.4,0,0.8-0.03,1.2,0
				c1.16,0.11,1.54-0.438,1.52-1.55c-0.05-2.48-0.01-4.96-0.01-7.439c-0.01-2.971-0.01-2.979-2.96-2.979
				c-17.92,0-35.84,0.03-53.76-0.021c-4.36-0.021-3.75,0.459-3.75-3.67c-0.03-14.4-0.01-28.801-0.01-43.199
				c0-14.802,0.02-29.602-0.04-44.4c-0.01-1.77,0.45-2.34,2.28-2.32c8.96,0.09,17.92,0.05,26.88,0.04
				c4.72-0.01,9.44-0.09,14.16-0.04c1.77,0.02,2.39-0.65,2.29-2.42c-0.13-2.23-0.02-4.48-0.03-6.72c-0.01-2.88-0.01-2.89-2.91-2.9
				c-12.88-0.03-25.75-0.05-38.63-0.06c-3.87-0.01-3.87-0.01-4.07-3.97c-0.06-1.19-0.28-2.38-0.27-3.57
				c0.1-21.51,0.22-43.02,0.34-64.53c0.02-2.16,0.15-4.32,0.17-6.48c0.03-1.97,0.83-2.62,2.93-2.6c15.28,0.1,30.56,0.05,45.84,0.05
				C70.82,117.06,74.1,117.02,77.38,117.08z"/>
			<path fill="#FFFFFF" d="M79.22,115.31c0.05,1.4-0.53,1.8-1.84,1.77c-3.28-0.06-6.56-0.02-9.84-0.02
				c-15.28,0-30.56,0.05-45.84-0.05c-2.1-0.02-2.9,0.63-2.93,2.6c-0.02,2.16-0.15,4.32-0.17,6.48c-0.12,21.51-0.24,43.02-0.34,64.53
				c-0.01,1.19,0.21,2.38,0.27,3.57c0.2,3.96,0.2,3.96,4.07,3.97c12.88,0.01,25.75,0.03,38.63,0.06c2.9,0.01,2.9,0.021,2.91,2.9
				c0.01,2.24-0.1,4.49,0.03,6.72c0.1,1.77-0.52,2.44-2.29,2.42c-4.72-0.05-9.44,0.03-14.16,0.04c-8.96,0.01-17.92,0.05-26.88-0.04
				c-1.83-0.02-2.29,0.55-2.28,2.32c0.06,14.8,0.04,29.6,0.04,44.4c0,14.398-0.02,28.799,0.01,43.199c0,4.129-0.61,3.649,3.75,3.67
				c17.92,0.051,35.84,0.021,53.76,0.021c2.95,0,2.95,0.01,2.96,2.979c0,2.479-0.04,4.959,0.01,7.439
				c0.02,1.109-0.36,1.66-1.52,1.55c-0.4-0.03-0.8,0-1.2,0c-22.24,0-44.48,0-66.72,0c-2.82,0-2.92-0.06-2.95-2.96
				c-0.09-6.479-0.17-12.96-0.19-19.439C6.38,241.93,6.26,190.42,6.15,138.91c-0.01-7.28,0.01-14.56,0.07-21.84
				c0.02-2.71,0.22-5.42,0.27-8.13c0.07-3.11,0.07-3.2,3.24-3.29c4.32-0.13,8.64-0.18,12.96-0.22c13.67-0.1,27.35-0.22,41.02-0.26
				c4.47-0.01,8.94,0.29,13.41,0.32c1.6,0.01,2.09,0.66,2.06,2.15C79.13,110.19,79.14,112.76,79.22,115.31z"/>
		</g>
	</g>
</g>
</svg>
