<?xml version="1.0" encoding="utf-8"?>
<!-- Generator: Adobe Illustrator 16.0.0, SVG Export Plug-In . SVG Version: 6.00 Build 0)  -->
<!DOCTYPE svg PUBLIC "-//W3C//DTD SVG 1.1//EN" "http://www.w3.org/Graphics/SVG/1.1/DTD/svg11.dtd">
<svg version="1.1" id="Layer_1" xmlns="http://www.w3.org/2000/svg" xmlns:xlink="http://www.w3.org/1999/xlink" x="0px" y="0px"
	 width="2001px" height="477px" viewBox="0 0 2001 477" enable-background="new 0 0 2001 477" xml:space="preserve">
<g id="banner">
	<path fill-rule="evenodd" clip-rule="evenodd" fill="#A1A0A0" d="M2001.014,313.92c-2.949,5.323-7.106,8.752-13.531,8.604
		c-6.979-0.16-12.695-5.38-13.645-12.448c-0.861-6.424,3.474-13.142,9.74-15.095c6.813-2.123,13.534,0.777,16.711,7.2
		c0.203,0.412,0.481,0.787,0.725,1.18C2001.014,306.88,2001.014,310.4,2001.014,313.92z M1998.179,308.457
		c0.011-6.151-4.244-10.427-10.353-10.402c-5.898,0.022-10.337,4.413-10.375,10.262c-0.04,6.122,4.377,10.477,10.619,10.469
		C1994.096,318.778,1998.169,314.616,1998.179,308.457z"/>
	<path fill-rule="evenodd" clip-rule="evenodd" fill="#4CB1FF" d="M1122.969,139.705c0.938,1.292,1.876,2.585,2.816,3.876
		c1.892,2.596,2.3,5.514,1.212,8.428c-1.312,3.51-2.935,6.908-4.524,10.307c-15.38,32.87-30.786,65.727-46.158,98.6
		c-0.625,1.337-0.986,2.797-1.471,4.199c1.396-0.203,2.803-0.35,4.186-0.619c6.584-1.283,13.159-2.605,19.741-3.898
		c0.524-0.103,1.071-0.089,1.607-0.129c-0.159,0.58-0.176,1.26-0.501,1.725c-3.618,5.176-7.262,10.336-10.941,15.469
		c-30.708,42.825-61.428,85.642-92.137,128.466c-15.424,21.511-30.826,43.037-46.266,64.535c-1.062,1.48-2.361,2.791-3.55,4.18
		c0.523-1.577,0.894-3.225,1.593-4.719c6.641-14.185,13.342-28.341,20.02-42.509c9.13-19.373,18.24-38.756,27.386-58.121
		c9.011-19.077,18.06-38.136,27.084-57.207c2.393-5.056,4.778-10.114,7.108-15.199c0.344-0.751,0.357-1.652,0.524-2.484
		c-0.76,0.087-1.549,0.07-2.274,0.276c-6.987,1.983-13.965,4.001-20.942,6.018c-2.612,0.755-2.854,0.618-2.174-2.072
		c2.816-11.142,5.688-22.269,8.589-33.388c11.994-45.95,24.023-91.891,35.992-137.847c1.526-5.861,2.771-11.795,4.146-17.696
		c0.296-0.185,0.592-0.369,0.888-0.553c1.826,0.193,3.65,0.405,5.479,0.577c8.034,0.757,16.046,1.609,23.708,4.402
		c12.53,4.566,23.102,12.183,32.971,20.941C1118.914,136.89,1120.999,138.231,1122.969,139.705z"/>
	<path fill-rule="evenodd" clip-rule="evenodd" fill="#0464B6" d="M1054.036,109.895c-1.375,5.9-2.62,11.835-4.146,17.696
		c-11.969,45.957-23.998,91.897-35.992,137.847c-2.901,11.119-5.772,22.246-8.589,33.388c-0.681,2.69-0.438,2.827,2.174,2.072
		c6.978-2.017,13.955-4.034,20.942-6.018c0.726-0.206,1.515-0.189,2.274-0.276c-0.167,0.832-0.181,1.733-0.524,2.484
		c-2.33,5.085-4.716,10.144-7.108,15.199c-9.024,19.071-18.073,38.13-27.084,57.207c-9.146,19.365-18.256,38.748-27.386,58.121
		c-6.677,14.168-13.378,28.324-20.02,42.509c-0.7,1.494-1.07,3.142-1.593,4.719c-0.47,0.623-0.939,1.246-1.409,1.869
		c-0.006-0.819-0.113-1.654-0.001-2.457c0.98-7.044,1.987-14.083,3.011-21.12c2.82-19.373,5.638-38.746,8.483-58.114
		c3.112-21.188,6.258-42.372,9.379-63.559c0.99-6.719,1.923-13.446,2.946-20.16c0.24-1.574-0.255-1.661-1.637-1.364
		c-5.544,1.194-11.122,2.233-16.675,3.384c-1.558,0.322-2.324,0.334-1.96-1.75c3.568-20.463,7.013-40.946,10.544-61.415
		c4.061-23.539,8.181-47.067,12.262-70.603c3.057-17.633,6.061-35.274,9.196-52.893c0.262-1.474,1.343-2.802,2.045-4.199
		c15.647-5.175,31.499-9.566,47.935-11.278C1038.71,110.392,1046.39,110.303,1054.036,109.895z M1019.691,172.355
		c-0.449-0.505-0.81-1.127-1-1.079c-0.423,0.108-0.94,0.49-1.071,0.877c-0.089,0.262,0.458,1.057,0.643,1.033
		C1018.707,173.126,1019.106,172.725,1019.691,172.355z"/>
	<path fill-rule="evenodd" clip-rule="evenodd" fill="#040303" d="M1054.036,109.895c-7.646,0.408-15.326,0.497-22.934,1.289
		c-16.437,1.712-32.288,6.103-47.935,11.278c6.067-6.132,12.07-12.332,18.219-18.383c10.826-10.653,21.748-21.21,32.62-31.817
		c23.175-22.611,46.347-45.224,69.499-67.858c0.895-0.874,1.575-1.967,2.355-2.958c0.557,0.033,1.113,0.07,1.671,0.098
		c1.418,0.069,2.835,0.134,4.253,0.2c-0.579,1.538-0.938,3.209-1.771,4.595c-9.863,16.427-19.723,32.856-29.731,49.194
		c-10.424,17.018-19.35,34.721-25.359,53.809C1054.628,109.526,1054.332,109.71,1054.036,109.895z"/>
	<path fill-rule="evenodd" clip-rule="evenodd" fill="#A1A0A0" d="M1420.687,266.459c-0.001-16.318,0-32.637-0.001-48.956
		c0-3.143-0.11-3.349-3.126-3.38c-16.308-0.171-32.619-0.527-48.923-0.314c-6.098,0.08-5.092-0.976-5.159,5.115
		c-0.105,9.502,0.006,19.007-0.04,28.511c-0.027,5.512-0.279,11.022-0.264,16.534c0.05,17.51,0.139,35.021,0.326,52.53
		c0.023,2.227-0.605,2.855-2.802,2.775c-4.554-0.167-9.118-0.114-13.676-0.016c-1.574,0.035-2.123-0.477-2.115-2.022
		c0.02-4.078-0.078-8.157-0.111-12.235c-0.146-18.069-0.381-36.139-0.411-54.209c-0.062-38.475-0.026-76.95-0.013-115.426
		c0.003-8.718,0.073-17.437,0.138-26.154c0.007-1.033,0.201-2.063,0.268-3.098c0.279-4.344,0.273-4.345,4.536-4.345
		c3.84,0,7.683,0.087,11.518-0.039c1.777-0.058,2.341,0.449,2.312,2.272c-0.106,6.478-0.041,12.958-0.041,19.438
		c0,22.638,0.033,45.276-0.057,67.914c-0.009,2.097,0.628,2.87,2.609,2.924c6.47,0.176,12.937,0.522,19.406,0.583
		c9.438,0.09,18.878,0.002,28.316-0.041c1.434-0.006,2.865-0.196,4.3-0.261c3.165-0.143,3.006,0.22,3.007-3.316
		c0.005-28.877,0.023-57.755-0.041-86.632c-0.005-2.126,0.445-2.936,2.744-2.837c4.471,0.191,8.958,0.117,13.436,0.025
		c1.643-0.034,2.199,0.451,2.209,2.154c0.105,19.349,0.339,38.697,0.434,58.046c0.164,33.749,0.272,67.497,0.369,101.245
		c0.033,11.118-0.004,22.237-0.078,33.355c-0.045,6.791-0.263,13.582-0.31,20.374c-0.012,1.682-0.403,2.417-2.286,2.358
		c-4.46-0.137-8.927-0.037-13.391-0.046c-2.929-0.007-3.078-0.146-3.079-3.152C1420.683,299.575,1420.687,283.018,1420.687,266.459z
		 M1424.068,263.303c0,2.8,0,5.6,0,8.399c0,13.92,0.034,27.841-0.04,41.76c-0.01,1.873,0.472,2.548,2.399,2.42
		c2.469-0.162,4.962-0.138,7.436-0.006c1.749,0.094,2.138-0.616,2.149-2.228c0.077-11.191,0.364-22.384,0.353-33.575
		c-0.038-37.513-0.176-75.025-0.269-112.538c-0.031-12.72,0.006-25.44-0.075-38.159c-0.048-7.432-0.286-14.862-0.389-22.294
		c-0.018-1.254-0.289-1.947-1.734-1.888c-2.156,0.089-4.325-0.072-6.478,0.057c-3.355,0.201-3.353,0.266-3.353,3.658
		c-0.001,28.56,0.002,57.12-0.006,85.68c-0.001,3.264-0.028,3.266-3.232,3.266c-19.2,0-38.4,0-57.601,0
		c-3.157,0-3.161-0.003-3.161-3.067c-0.001-28.56-0.001-57.12-0.001-85.68c0-0.56-0.044-1.124,0.009-1.679
		c0.124-1.315-0.356-1.888-1.758-1.821c-1.995,0.095-3.998,0.023-5.998,0.023c-4.396,0-4.415,0-4.438,4.389
		c-0.071,14.078-0.177,28.157-0.181,42.235c-0.011,35.36-0.017,70.719,0.067,106.079c0.037,15.752,0.298,31.503,0.455,47.254
		c0.027,2.72,0.072,5.439,0.049,8.159c-0.012,1.381,0.209,2.288,1.96,2.206c2.22-0.104,4.469,0.234,6.676,0.042
		c3.167-0.274,3.156-0.405,3.158-3.533c0.025-32.959,0.072-65.918,0.026-98.877c-0.003-2.262,0.517-2.983,2.891-2.971
		c19.439,0.098,38.881,0.088,58.32,0.009c2.155-0.008,2.83,0.509,2.817,2.762C1424.023,230.022,1424.068,246.662,1424.068,263.303z"
		/>
	<path fill-rule="evenodd" clip-rule="evenodd" fill="#A1A0A0" d="M340.566,210.158c0,24.717-0.005,49.435,0.012,74.151
		c0.001,1.675-0.01,3.384,0.296,5.018c1.357,7.237,5.657,10.891,13.734,11.084c9.753,0.233,19.521,0.25,29.273,0.007
		c8.758-0.219,13.564-5.514,13.577-14.32c0.013-9.599,0.046-19.198-0.035-28.796c-0.015-1.833,0.411-2.516,2.381-2.457
		c4.875,0.144,9.759,0.102,14.636,0.015c1.516-0.027,2.213,0.413,2.214,1.973c0.001,1.433,0.216,2.864,0.22,4.297
		c0.023,7.999,0.067,15.999-0.005,23.997c-0.07,7.773-1.898,15.05-6.688,21.349c-6.434,8.461-15.202,12.626-25.635,12.947
		c-10.387,0.319-20.804,0.38-31.186-0.012c-12.279-0.463-21.887-5.938-28.029-16.854c-2.929-5.206-4.162-10.903-4.167-16.807
		c-0.044-50.155-0.049-100.309-0.012-150.463c0.012-17.09,10.996-30.361,27.658-33.239c4.061-0.701,8.281-0.66,12.427-0.655
		c8.551,0.011,17.111,0.033,25.651,0.401c15.531,0.669,29.125,14.407,29.63,29.968c0.331,10.222,0.286,20.458,0.35,30.688
		c0.022,3.561-0.097,3.598-3.602,3.598c-4.479,0.001-8.96-0.055-13.438,0.03c-1.544,0.029-2.099-0.44-2.106-2.025
		c-0.041-9.671-0.195-19.342-0.247-29.014c-0.016-3.012-0.411-5.857-2.033-8.494c-2.194-3.566-5.354-5.535-9.477-5.57
		c-11.277-0.097-22.556-0.118-33.833-0.002c-5.792,0.059-10.881,5.082-11.472,10.958c-0.104,1.031-0.094,2.077-0.094,3.116
		C340.565,160.084,340.566,185.121,340.566,210.158z M324.861,210.5c0,25.275-0.014,50.55,0.005,75.824
		c0.013,16.688,13.077,29.574,29.758,29.479c9.677-0.056,19.354-0.037,29.031-0.004c16.488,0.057,29.453-12.782,29.455-29.212
		c0.001-7.919,0.007-15.837-0.009-23.756c-0.002-0.953-0.152-1.906-0.188-2.861c-0.049-1.28-0.619-1.787-1.953-1.733
		c-2.396,0.097-4.806,0.148-7.195-0.012c-1.955-0.13-2.603,0.438-2.576,2.491c0.114,8.716,0.085,17.435,0.038,26.152
		c-0.053,9.652-7.666,17.06-17.327,17.029c-9.836-0.032-19.674,0.047-29.51,0.008c-7.58-0.03-12.847-3.765-16.108-10.461
		c-2.04-4.188-1.541-8.672-1.535-13.151c0.07-48.071,0.149-96.142-0.037-144.212c-0.042-10.766,6.629-19.329,19.093-19.049
		c9.433,0.212,18.874,0.015,28.312,0.05c9.472,0.035,17.066,7.613,17.114,17.067c0.027,5.438-0.041,10.877-0.043,16.315
		c-0.001,3.279,0.037,6.558,0.063,9.837c0.014,1.673,0.531,2.639,2.542,2.473c2.383-0.197,4.8-0.142,7.193-0.014
		c1.692,0.091,2.173-0.494,2.16-2.167c-0.073-9.117,0.194-18.243-0.095-27.352c-0.334-10.532-5.373-18.543-14.313-24.045
		c-4.601-2.832-9.695-4.013-15.092-4c-9.902,0.025-19.805-0.029-29.707,0.037c-2.061,0.014-4.165,0.204-6.172,0.655
		c-13.44,3.021-22.872,14.768-22.893,28.544C324.834,159.791,324.862,185.146,324.861,210.5z"/>
	<path fill-rule="evenodd" clip-rule="evenodd" fill="#A1A0A0" d="M1234.326,210.688c0,25.037,0.185,50.076-0.096,75.109
		c-0.105,9.442,6.907,14.849,14.907,14.727c9.116-0.139,18.235-0.025,27.354-0.033c9.558-0.009,15.019-5.487,15.021-15.053
		c0.003-9.425,0.044-18.849-0.037-28.271c-0.015-1.764,0.431-2.363,2.266-2.316c4.876,0.124,9.76,0.118,14.636,0.002
		c1.75-0.042,2.274,0.731,2.259,2.227c-0.117,11.428,0.274,22.892-0.501,34.274c-0.974,14.298-14.261,27.121-28.621,27.743
		c-12.36,0.535-24.785,0.57-37.142-0.014c-15.58-0.735-28.544-14.609-29.137-30.191c-0.015-0.399-0.037-0.799-0.038-1.198
		c-0.1-30.868-0.227-61.736-0.277-92.604c-0.016-9.351,0.243-18.702,0.253-28.053c0.008-7.432-0.368-14.867-0.211-22.293
		c0.131-6.204,0.078-12.548,1.354-18.565c2.964-13.979,15.548-24.037,29.8-24.422c10.226-0.276,20.462-0.393,30.689-0.282
		c17.257,0.188,29.861,10.455,33.187,26.852c0.488,2.41,0.669,4.916,0.69,7.379c0.081,8.958,0.062,17.917,0.018,26.876
		c-0.017,3.467-0.093,3.468-3.447,3.468c-4.319,0.001-8.643-0.107-12.957,0.046c-2.133,0.075-2.881-0.454-2.839-2.741
		c0.146-7.997,0.089-15.997,0.038-23.996c-0.017-2.631-0.153-5.271-0.4-7.891c-0.532-5.634-5.591-10.446-11.301-10.501
		c-11.193-0.108-22.391-0.12-33.585,0.001c-6.146,0.066-11.256,5.213-11.772,11.496c-0.104,1.273-0.105,2.557-0.105,3.836
		C1234.324,161.094,1234.326,185.891,1234.326,210.688z M1230.551,210.381c0.019,0,0.037,0,0.056,0
		c0-25.276-0.015-50.552,0.007-75.828c0.009-9.665,6.825-17.16,16.206-17.369c10.633-0.236,21.276-0.188,31.911-0.011
		c7.26,0.121,13.128,4.577,15.333,11.367c0.629,1.935,0.852,4.066,0.896,6.115c0.189,8.709,0.256,17.421,0.331,26.133
		c0.012,1.346,0.354,2.042,1.904,1.972c2.555-0.116,5.119-0.094,7.676-0.008c1.451,0.049,2.047-0.515,2.026-1.932
		c-0.148-10.547,0.203-21.129-0.547-31.632c-0.835-11.673-12.466-23.006-24.073-23.484c-12.76-0.525-25.572-0.56-38.331-0.044
		c-12.202,0.493-23.865,12.34-24.828,24.483c-0.39,4.913-0.113,9.878-0.147,14.819c-0.096,13.991-0.26,27.981-0.272,41.972
		c-0.009,10.39,0.271,20.781,0.254,31.171c-0.036,22.789-0.22,45.579-0.261,68.368c-0.029,16.463,12.993,29.38,29.397,29.324
		c10.078-0.035,20.155-0.058,30.233-0.066c15.669-0.014,28.547-12.836,28.599-28.524c0.026-8.158,0.013-16.317-0.005-24.476
		c-0.002-1.034,0.053-2.138-0.287-3.076c-0.22-0.606-1.089-1.342-1.704-1.378c-2.631-0.151-5.277-0.012-7.914-0.087
		c-1.269-0.036-1.697,0.488-1.707,1.674c-0.073,8.55-0.536,17.116-0.164,25.646c0.43,9.839-7.073,18.338-16.96,18.353
		c-10.077,0.016-20.154,0.035-30.232,0.02c-1.188-0.002-2.408-0.079-3.561-0.347c-8.326-1.936-13.819-8.89-13.827-17.567
		C1230.536,260.772,1230.551,235.577,1230.551,210.381z"/>
	<path fill-rule="evenodd" clip-rule="evenodd" fill="#A1A0A0" d="M745.941,209.991c0-24.957-0.035-49.913,0.021-74.869
		c0.018-7.981,2.187-15.32,7.382-21.554c6.054-7.264,13.89-11.343,23.273-11.745c10.376-0.445,20.78-0.438,31.17-0.354
		c17.478,0.142,30.092,10.772,33.292,27.889c0.408,2.181,0.473,4.45,0.473,6.678c-0.002,9.428-0.103,18.855-0.133,28.283
		c-0.005,1.506-0.723,1.83-2.097,1.811c-4.958-0.068-9.921-0.115-14.876,0.018c-1.913,0.052-2.224-0.695-2.217-2.376
		c0.041-10.157,0.086-20.316-0.076-30.472c-0.12-7.535-5.149-12.33-12.694-12.36c-10.555-0.042-21.111-0.039-31.666,0
		c-6.633,0.025-11.703,4.688-12.354,11.326c-0.218,2.221-0.349,4.46-0.35,6.691c-0.019,47.513-0.018,95.026-0.005,142.539
		c0.001,2.298-0.046,4.62,0.255,6.888c0.977,7.367,5.744,11.885,13.175,12.031c10.231,0.202,20.475,0.22,30.705-0.026
		c8.081-0.194,13.03-5.69,13.04-13.834c0.012-9.679,0.058-19.357-0.041-29.035c-0.02-2.025,0.388-2.818,2.612-2.735
		c4.793,0.18,9.598,0.098,14.396,0.029c1.446-0.021,2.192,0.259,2.198,1.929c0.026,6.472,0.298,12.943,0.223,19.412
		c-0.064,5.5,0.023,11.075-0.84,16.477c-2.342,14.655-14.214,25.732-29.018,26.46c-12.433,0.61-24.944,0.568-37.377-0.056
		c-13.083-0.657-24.895-11.997-27.533-25.38c-0.583-2.958-0.888-6.02-0.896-9.034C745.911,259.743,745.941,234.867,745.941,209.991z
		 M749.662,210.532c0,25.358-0.013,50.715,0.004,76.073c0.012,16.316,12.982,29.229,29.265,29.19
		c9.999-0.024,19.998-0.057,29.997-0.064c16.113-0.012,28.954-12.799,28.98-28.894c0.013-7.919,0.015-15.839-0.012-23.758
		c-0.003-1.11-0.262-2.219-0.288-3.33c-0.029-1.29-0.701-1.58-1.85-1.555c-2.479,0.056-4.965,0.123-7.437-0.021
		c-1.616-0.095-2.141,0.656-2.225,2.035c-0.048,0.798-0.056,1.599-0.057,2.397c-0.006,8.238,0.082,16.479-0.033,24.716
		c-0.128,9.179-7.683,16.526-16.812,16.541c-10.079,0.017-20.157,0.02-30.235,0.033c-8.999,0.013-16.654-6.913-17.318-15.95
		c-0.286-3.884-0.051-7.806-0.051-11.711c0-23.198,0-46.396,0-69.594c0-23.998-0.027-47.997,0.014-71.995
		c0.017-10.175,6.942-17.354,17.05-17.505c10.236-0.154,20.479-0.158,30.715,0.02c9.454,0.165,16.454,7.3,16.593,16.71
		c0.118,7.998,0.061,15.998,0.073,23.997c0.008,4.861,0.002,4.861,4.699,4.861c0.64,0,1.28,0,1.92,0c5.252,0,5.292,0,5.244-5.3
		c-0.044-5.033-0.209-10.064-0.273-15.097c-0.051-3.982,0.325-8.003-0.107-11.939c-1.557-14.189-14.077-25.177-28.378-25.186
		c-9.999-0.005-19.999-0.041-29.998,0.03c-2.221,0.016-4.492,0.189-6.649,0.685c-13.745,3.16-22.828,14.667-22.831,28.777
		C749.658,159.976,749.662,185.254,749.662,210.532z"/>
	<path fill-rule="evenodd" clip-rule="evenodd" fill="#A1A0A0" d="M1.861,210.479c0-35.038,0.026-70.075-0.057-105.112
		c-0.006-2.44,0.702-3.568,3.111-3.646c1.193-0.039,2.383-0.275,3.575-0.276c22.958-0.018,45.917-0.065,68.875,0.025
		c5.562,0.022,5.235-0.317,5.535,5.435c0.184,3.508-0.053,7.037,0.019,10.554c0.045,2.218-0.736,2.996-3.083,2.983
		c-18.318-0.098-36.637-0.013-54.956-0.106c-2.271-0.012-2.961,0.526-2.952,2.879c0.089,22.798,0.053,45.597,0.054,68.395
		c0,2.938,0.005,2.941,3.042,2.941c13.199,0.001,26.398,0.042,39.597-0.042c2.131-0.013,2.971,0.472,2.881,2.78
		c-0.18,4.633-0.128,9.279-0.016,13.916c0.044,1.821-0.39,2.481-2.367,2.468c-13.413-0.089-26.828,0.008-40.241-0.1
		c-2.25-0.018-2.963,0.462-2.955,2.853c0.091,27.118,0.086,54.236,0.005,81.354c-0.007,2.239,0.638,2.765,2.8,2.755
		c18.558-0.083,37.117-0.021,55.676-0.089c1.933-0.007,2.661,0.419,2.583,2.489c-0.167,4.473-0.097,8.955-0.078,13.434
		c0.007,1.71-0.578,2.728-2.459,2.78c-1.428,0.04-2.852,0.373-4.277,0.375c-23.518,0.024-47.037,0.018-70.555,0.018
		c-3.746,0-3.756-0.001-3.757-3.711C1.86,280.714,1.861,245.596,1.861,210.479z M18.597,256.983c0-14.8,0.028-29.6-0.037-44.399
		c-0.008-1.769,0.454-2.342,2.278-2.324c8.959,0.087,17.919,0.047,26.879,0.037c4.72-0.005,9.439-0.089,14.158-0.039
		c1.779,0.02,2.4-0.65,2.297-2.417c-0.13-2.232-0.027-4.478-0.032-6.718c-0.006-2.883-0.009-2.896-2.906-2.902
		c-12.879-0.027-25.758-0.046-38.638-0.066c-3.87-0.006-3.861-0.003-4.065-3.96c-0.062-1.194-0.278-2.384-0.273-3.576
		c0.1-21.511,0.219-43.021,0.347-64.531c0.013-2.159,0.14-4.316,0.167-6.475c0.024-1.977,0.83-2.622,2.928-2.607
		c15.279,0.108,30.559,0.058,45.838,0.058c3.28,0,6.561-0.042,9.839,0.019c1.308,0.024,1.895-0.374,1.847-1.768
		c-0.087-2.557-0.095-5.12-0.043-7.678c0.03-1.485-0.463-2.133-2.056-2.146c-4.473-0.036-8.945-0.329-13.417-0.318
		c-13.673,0.033-27.346,0.152-41.02,0.259c-4.318,0.034-8.637,0.092-12.954,0.219c-3.178,0.093-3.177,0.182-3.241,3.285
		c-0.057,2.713-0.254,5.424-0.275,8.137c-0.056,7.279-0.081,14.559-0.065,21.838c0.111,51.51,0.23,103.02,0.36,154.529
		c0.017,6.479,0.095,12.957,0.183,19.436c0.039,2.905,0.134,2.964,2.958,2.964c22.239,0.002,44.479,0.001,66.719,0.001
		c0.399,0,0.802-0.032,1.199,0.003c1.157,0.103,1.537-0.446,1.516-1.555c-0.047-2.479-0.012-4.96-0.013-7.439
		c-0.001-2.975-0.003-2.977-2.959-2.977c-17.919-0.002-35.839,0.029-53.758-0.024c-4.36-0.014-3.744,0.464-3.751-3.666
		C18.58,285.782,18.597,271.383,18.597,256.983z"/>
	<path fill-rule="evenodd" clip-rule="evenodd" fill="#464747" d="M1054.924,109.342c6.01-19.088,14.936-36.791,25.359-53.809
		c10.009-16.338,19.868-32.768,29.731-49.194c0.832-1.386,1.191-3.057,1.771-4.595c-1.418-0.066-2.835-0.131-4.253-0.2
		c-0.558-0.027-1.114-0.065-1.671-0.098c2.604-0.064,5.209-0.154,7.814-0.185c2.72-0.032,5.442,0.069,8.158-0.034
		c1.752-0.067,2.097,0.266,1.154,1.899c-3.994,6.922-7.981,13.852-11.797,20.874c-6.451,11.872-12.589,23.901-16.563,36.885
		c-0.887,2.898-1.517,5.877-2.225,8.829c-0.979,4.083-0.194,7.915,1.673,11.603c8.985,17.751,17.97,35.502,26.912,53.275
		c0.817,1.625,1.327,3.404,1.98,5.113c-1.97-1.473-4.055-2.815-5.888-4.442c-9.869-8.758-20.44-16.375-32.971-20.941
		c-7.662-2.793-15.674-3.646-23.708-4.402C1058.574,109.747,1056.75,109.535,1054.924,109.342z"/>
	<path fill-rule="evenodd" clip-rule="evenodd" fill="#A1A0A0" d="M564.848,210.357c0-35.274,0.021-70.548-0.051-105.822
		c-0.004-2.139,0.576-3.085,2.709-3.006c0.715,0.026,1.435-0.091,2.152-0.091c18.717-0.005,37.434-0.031,56.15,0.004
		c16.754,0.031,29.859,10.225,33.288,25.913c0.474,2.167,0.709,4.43,0.716,6.649c0.054,19.195,0.011,38.391,0.038,57.586
		c0.021,14.682-6.172,25.521-19.659,31.803c-1.938,0.902-2.462,1.818-1.935,3.995c6.359,26.229,12.603,52.488,18.872,78.74
		c0.872,3.65,1.663,7.32,2.594,10.955c0.416,1.62-0.028,2.133-1.692,2.112c-5.598-0.07-11.198-0.078-16.796,0.007
		c-1.516,0.023-2.093-0.541-2.394-1.953c-3.167-14.837-6.38-29.664-9.585-44.493c-3.205-14.827-6.442-29.646-9.585-44.486
		c-0.322-1.521-0.987-1.927-2.416-1.921c-10.558,0.039-21.117,0.083-31.675-0.026c-2.361-0.024-2.059,1.334-2.059,2.782
		c0.005,28.795,0.004,57.59,0.003,86.385c0,0.56-0.059,1.127,0.011,1.679c0.201,1.596-0.492,2.059-2.045,2.031
		c-4.718-0.084-9.441-0.129-14.155,0.016c-2.021,0.062-2.569-0.575-2.531-2.557c0.121-6.237,0.044-12.478,0.044-18.716
		C564.848,268.748,564.848,239.553,564.848,210.357z M580.148,269.278c0-14.479,0.035-28.956-0.038-43.434
		c-0.011-2.146,0.588-2.835,2.824-2.814c12.077,0.113,24.156,0.124,36.233-0.007c2.319-0.025,3.224,0.726,3.688,2.911
		c4.616,21.708,9.304,43.401,13.983,65.096c1.498,6.945,2.998,13.891,4.562,20.821c0.759,3.363,1.683,4.067,5.149,3.975
		c2.231-0.061,4.455-0.342,6.685-0.493c1.808-0.123,2.353-0.747,1.873-2.731c-7.024-29.025-13.961-58.072-20.896-87.119
		c-0.848-3.55-1.461-2.966,2.252-4.288c12.095-4.305,19.947-15.207,19.986-27.975c0.06-19.276,0.064-38.552-0.015-57.828
		c-0.022-5.475-0.923-10.83-3.783-15.657c-5.828-9.837-14.695-14.413-25.902-14.49c-17.917-0.124-35.834-0.038-53.751-0.021
		c-1.031,0.001-2.061,0.228-3.094,0.252c-1.313,0.032-1.75,0.619-1.764,1.936c-0.047,4.392-0.33,8.783-0.324,13.174
		c0.072,54.063,0.179,108.125,0.28,162.188c0.008,4.238,0.01,8.478,0.08,12.716c0.1,6.07,0.292,12.14,0.368,18.211
		c0.018,1.4,0.589,1.78,1.879,1.745c2.397-0.066,4.807-0.14,7.196,0.02c1.973,0.132,2.584-0.479,2.572-2.515
		C580.106,298.394,580.146,283.836,580.148,269.278z"/>
	<path fill-rule="evenodd" clip-rule="evenodd" fill="#A1A0A0" d="M215.406,210.311c0-35.191,0-70.383,0-105.574
		c0-2.963,0.003-2.966,2.974-2.966c24.714-0.001,49.428-0.001,74.142,0c2.853,0,2.905,0.032,2.921,2.967
		c0.025,4.397-0.104,8.799,0.055,13.19c0.076,2.107-0.533,2.7-2.668,2.69c-18.235-0.086-36.471-0.05-54.706-0.05
		c-3.408,0-3.474,0.001-3.501,3.406c-0.176,22.303-0.335,44.606-0.464,66.91c-0.022,3.854,0.129,3.94,4.102,3.945
		c12.957,0.017,25.914,0.062,38.87-0.018c2.093-0.013,2.746,0.546,2.665,2.689c-0.175,4.632-0.141,9.278-0.011,13.913
		c0.052,1.86-0.596,2.255-2.333,2.247c-13.197-0.066-26.394-0.037-39.59-0.036c-3.168,0-3.215,0.002-3.234,3.065
		c-0.154,24.863-0.301,49.727-0.412,74.59c-0.011,2.471,0.299,4.941,0.323,7.413c0.014,1.381,0.569,1.779,1.875,1.76
		c3.838-0.058,7.678-0.02,11.517-0.02c14.876,0,29.753,0.05,44.629-0.054c2.24-0.016,2.977,0.695,2.913,2.829
		c-0.135,4.55-0.198,9.104-0.188,13.655c0.004,1.884-0.758,2.38-2.589,2.351c-6.716-0.107-13.436-0.042-20.154-0.042
		c-17.996,0-35.991,0-53.986-0.001c-3.144,0-3.146-0.002-3.146-3.047C215.406,280.853,215.406,245.581,215.406,210.311z
		 M218.788,210.466c0,34.07,0.021,68.141-0.047,102.211c-0.004,2.25,0.59,3.12,2.907,3.128c5.51,0.02,11.02,0.382,16.529,0.368
		c13.428-0.035,26.856-0.196,40.284-0.326c3.517-0.034,7.032-0.155,10.549-0.206c1.93-0.027,2.896-0.716,2.622-2.879
		c-0.219-1.732-0.044-3.514-0.044-5.273c0-3.553-0.001-3.554-3.441-3.554c-17.835,0-35.67,0.008-53.504-0.007
		c-3.495-0.003-3.418,0.53-3.48-3.268c-0.039-2.392-0.34-4.782-0.329-7.173c0.118-26.863,0.293-53.727,0.384-80.589
		c0.007-2.156,0.8-2.67,2.833-2.639c7.276,0.111,14.555,0.051,21.833,0.041c6.238-0.008,12.476-0.045,18.713-0.048
		c1.112,0,2.123,0.005,2.107-1.538c-0.029-2.797-0.019-5.595-0.025-8.393c-0.003-1.847-0.769-2.531-2.757-2.517
		c-13.436,0.095-26.872,0.027-40.308,0.077c-1.717,0.006-2.557-0.243-2.551-2.31c0.071-25.433,0.065-50.865,0.007-76.298
		c-0.004-1.875,0.665-2.281,2.373-2.24c4.236,0.102,8.477,0.033,12.715,0.033c14.236,0,28.472-0.028,42.708,0.035
		c1.802,0.008,2.634-0.355,2.469-2.359c-0.177-2.145-0.201-4.331,0.004-6.47c0.22-2.297-0.696-2.747-2.819-2.74
		c-22.233,0.071-44.467,0.043-66.701,0.044c-3.028,0-3.03,0.002-3.03,3.158C218.788,142.646,218.788,176.556,218.788,210.466z"/>
	<path fill-rule="evenodd" clip-rule="evenodd" fill="#A1A0A0" d="M1525.863,210.75c0-34.876,0-69.753,0.003-104.63
		c0-0.879-0.2-1.866,0.131-2.605c0.312-0.695,1.194-1.59,1.845-1.607c5.117-0.132,10.238-0.048,15.357-0.093
		c1.213-0.011,1.776,0.4,1.76,1.639c-0.019,1.439,0.057,2.879,0.057,4.318c0.004,63.194,0.004,126.388,0.004,189.582
		c0,3.136,0.002,3.138,3.038,3.138c18.318,0.001,36.637,0.04,54.955-0.05c2.23-0.012,3.08,0.423,2.971,2.843
		c-0.206,4.551-0.113,9.118-0.03,13.676c0.028,1.581-0.319,2.248-2.096,2.244c-25.197-0.054-50.395-0.063-75.592,0.008
		c-2.339,0.007-2.34-1.208-2.338-2.875c0.021-19.678,0.014-39.356,0.014-59.034c0-15.518,0-31.036,0-46.553
		C1525.915,210.75,1525.89,210.75,1525.863,210.75z M1530.012,210.356c0,33.987,0,67.975,0,101.963c0,3.185,0.004,3.191,3.107,3.191
		c21.912,0.003,43.824,0.002,65.736,0.001c0.399,0,0.801-0.028,1.199,0.001c1.797,0.131,2.648-0.553,2.525-2.49
		c-0.133-2.07-0.026-4.156-0.03-6.235c-0.006-2.914-0.009-2.922-2.844-2.922c-18.473-0.003-36.946-0.001-55.419-0.002
		c-3.063,0-3.065-0.002-3.065-3.115c0-63.817,0-127.634,0-191.45c-0.001-0.72-0.044-1.442,0.005-2.159
		c0.08-1.145-0.426-1.553-1.547-1.528c-2.238,0.051-4.479,0.011-6.718,0.013c-2.946,0.002-2.949,0.004-2.95,3.009
		C1530.012,142.541,1530.012,176.449,1530.012,210.356z"/>
	<path fill-rule="evenodd" clip-rule="evenodd" fill="#A1A0A0" d="M1746.126,245.502c0-14.714-0.005-29.429,0.002-44.144
		c0.007-16.502,13.021-29.503,29.528-29.508c7.837-0.002,15.675-0.016,23.512,0.003c15.202,0.037,28.366,13.145,28.438,28.322
		c0.029,6.238,0.004,12.476,0.004,18.713c0,0.4,0.014,0.801-0.009,1.2c-0.19,3.402-0.192,3.403-3.554,3.404
		c-3.678,0.001-7.358-0.056-11.035,0.025c-1.689,0.037-2.7-0.244-2.699-2.29c0.005-6.47-0.176-12.94-0.2-19.41
		c-0.016-3.979-1.219-7.402-4.354-9.958c-2.465-2.009-5.442-2.662-8.527-2.695c-7.104-0.076-14.211-0.104-21.314-0.047
		c-6.788,0.054-12.444,5.785-12.478,12.667c-0.047,9.996,0.037,19.993,0.034,29.989c-0.005,18.154-0.045,36.307-0.033,54.46
		c0.001,1.908,0.095,3.842,0.414,5.719c0.987,5.799,5.366,9.832,11.197,9.961c7.898,0.175,15.807,0.179,23.704-0.011
		c6.286-0.15,11.036-4.896,11.234-11.2c0.218-6.95,0.161-13.913,0.062-20.869c-0.029-2.018,0.587-2.627,2.568-2.559
		c3.9,0.134,7.809,0.024,11.714,0.043c3.13,0.016,3.214,0.033,3.256,3.414c0.069,5.598,0.183,11.202-0.035,16.792
		c-0.147,3.8-0.384,7.697-1.353,11.347c-2.923,11.01-13.385,19.711-24.778,20.234c-9.721,0.447-19.509,0.583-29.212-0.025
		c-14.154-0.887-26.047-14.256-26.077-28.473C1746.102,275.571,1746.127,260.537,1746.126,245.502z M1749.453,245.736
		c0.019,0,0.038,0,0.058,0c0,14.954-0.062,29.91,0.019,44.864c0.071,13.472,11.771,25.059,25.229,25.112
		c7.996,0.032,15.992,0.035,23.988-0.001c11.949-0.054,22.016-7.896,24.608-19.616c1.723-7.782,1.066-15.737,0.528-23.628
		c-0.032-0.469-0.809-1.245-1.269-1.268c-2.455-0.12-4.925-0.126-7.377,0.023c-0.535,0.032-1.449,0.847-1.464,1.324
		c-0.155,5.022-0.608,10.095-0.117,15.067c0.962,9.743-5.752,17.7-15.577,17.752c-7.182,0.037-14.362,0.016-21.544,0.005
		c-10.207-0.015-16.437-6.25-16.438-16.453c-0.005-18.314,0.005-36.628-0.004-54.941c-0.006-10.876-0.078-21.752-0.038-32.628
		c0.03-8.055,6.76-15.416,14.373-15.547c8.232-0.142,16.477-0.178,24.705,0.072c6.315,0.192,10.985,3.399,13.266,9.346
		c0.917,2.393,1.143,5.135,1.248,7.736c0.202,5.03,0.126,10.073,0.097,15.111c-0.008,1.342,0.462,1.847,1.815,1.795
		c2.156-0.082,4.321-0.101,6.476,0.007c1.452,0.072,1.994-0.435,1.984-1.884c-0.041-5.982,0.235-11.978-0.064-17.945
		c-0.72-14.338-11.348-24.526-25.694-24.797c-7.034-0.133-14.072-0.08-21.109-0.06c-16.354,0.044-27.702,11.471-27.698,27.848
		C1749.456,217.266,1749.453,231.501,1749.453,245.736z"/>
	<path fill-rule="evenodd" clip-rule="evenodd" fill="#A1A0A0" d="M108.848,210.532c0-34.547-0.005-69.095,0.005-103.642
		c0.002-6.09-0.104-4.983,4.999-5.048c3.998-0.051,7.998,0.049,11.995-0.039c1.58-0.035,2.157,0.567,2.13,2.083
		c-0.032,1.837,0.078,3.677,0.078,5.516c0.005,62.618,0.002,125.235,0.009,187.853c0,3.599-0.386,3.23,3.174,3.232
		c18.313,0.01,36.627,0.047,54.94-0.05c2.262-0.012,2.827,0.661,2.755,2.817c-0.154,4.634-0.101,9.276-0.018,13.913
		c0.028,1.582-0.5,2.033-2.07,2.031c-25.191-0.045-50.381-0.065-75.572,0.019c-2.651,0.009-2.291-1.536-2.291-3.126
		c-0.001-35.187-0.001-70.373-0.001-105.56C108.937,210.532,108.893,210.532,108.848,210.532z M112.757,210.73
		c0,33.991,0.022,67.982-0.05,101.972c-0.005,2.233,0.626,2.784,2.803,2.775c20.714-0.079,41.429-0.048,62.143-0.048
		c1.919,0,3.843-0.073,5.757,0.022c1.494,0.075,1.963-0.528,1.907-1.958c-0.085-2.156-0.021-4.318-0.021-6.478
		c-0.001-3.149-0.002-3.152-3.047-3.152c-18.315-0.001-36.63,0.004-54.945-0.004c-3.391-0.002-3.037,0.317-3.037-3.137
		c-0.006-63.823-0.004-127.646-0.004-191.469c0-0.72,0.197-1.523-0.06-2.136c-0.258-0.614-0.941-1.437-1.488-1.476
		c-2.308-0.165-4.634-0.074-6.953-0.072c-2.999,0.001-3.002,0.002-3.002,2.947C112.757,142.588,112.757,176.659,112.757,210.73z"/>
	<path fill-rule="evenodd" clip-rule="evenodd" fill="#A1A0A0" d="M500.003,220.087c0,32.076-0.025,64.152,0.053,96.229
		c0.005,2.317-0.592,3.006-2.915,2.909c-4.472-0.188-8.963-0.2-13.434,0.004c-2.412,0.109-3.17-0.728-2.818-2.972
		c0.086-0.546,0.013-1.117,0.013-1.678c0-63.433,0.002-126.865-0.005-190.297c0-3.858,0.415-3.405-3.499-3.411
		c-10.719-0.018-21.438-0.052-32.156,0.036c-1.916,0.016-2.462-0.56-2.412-2.439c0.124-4.636,0.154-9.282-0.013-13.916
		c-0.07-1.957,0.733-2.536,2.42-2.566c4.876-0.087,9.753-0.225,14.629-0.259c16.791-0.117,33.582-0.262,50.373-0.265
		c8.311-0.001,16.621,0.338,24.933,0.403c2.189,0.017,2.886,0.755,2.802,2.96c-0.171,4.473-0.151,8.96-0.007,13.435
		c0.066,2.051-0.656,2.557-2.604,2.548c-10.877-0.048-21.755,0.089-32.632,0.004c-2.226-0.018-2.78,0.627-2.775,2.807
		C500.025,155.774,500.003,187.931,500.003,220.087z M484.281,216.224c0,29.673,0,59.345,0,89.018c0,2.64,0.117,5.286-0.04,7.916
		c-0.111,1.868,0.585,2.351,2.332,2.242c2.231-0.139,4.477-0.019,6.716-0.037c3.527-0.029,3.257,0.466,3.259-3.163
		c0.029-64.063,0.065-128.127,0.028-192.191c-0.001-2.27,0.503-2.967,2.871-2.942c10.795,0.117,21.594-0.033,32.39,0.051
		c2.148,0.017,2.855-0.704,2.734-2.753c-0.119-1.993-0.093-4-0.01-5.996c0.088-2.126-0.72-3.036-2.944-2.881
		c-1.656,0.114-3.34-0.27-5.011-0.261c-25.264,0.125-50.527,0.278-75.791,0.427c-0.56,0.003-1.119,0.05-1.678,0.047
		c-1.837-0.007-2.773,0.795-2.707,2.734c0.071,2.077,0.117,4.166-0.025,6.236c-0.132,1.917,0.582,2.454,2.466,2.439
		c10.797-0.08,21.595-0.04,32.392-0.038c3.013,0,3.018,0.003,3.018,2.936C484.281,152.08,484.281,184.152,484.281,216.224z"/>
	<path fill-rule="evenodd" clip-rule="evenodd" fill="#A1A0A0" d="M1492.219,210.476c0,35.193-0.014,70.386,0.036,105.579
		c0.003,2.129-0.135,3.413-2.843,3.331c-4.624-0.14-9.261,0.087-13.891,0.208c-1.359,0.035-1.546-0.705-1.564-1.812
		c-0.116-6.631-0.385-13.261-0.396-19.892c-0.071-45.109-0.112-90.22-0.118-135.33c-0.002-17.115,0.103-34.23,0.191-51.345
		c0.013-2.552,0.268-5.103,0.292-7.655c0.013-1.312,0.421-1.832,1.8-1.813c4.958,0.065,9.918,0.058,14.877,0.005
		c1.287-0.014,1.721,0.502,1.623,1.706c-0.052,0.636-0.008,1.279-0.008,1.919C1492.219,140.41,1492.219,175.443,1492.219,210.476z
		 M1488.717,210.499c0-33.824,0-67.648,0-101.473c0-0.64-0.035-1.282,0.003-1.919c0.067-1.12-0.403-1.579-1.546-1.552
		c-2.237,0.053-4.478,0.012-6.717,0.013c-3.061,0.001-3.062,0.002-3.062,3.126c0,67.889,0,135.777,0,203.666
		c0,0.399,0.056,0.809-0.01,1.197c-0.25,1.5,0.567,2.052,1.875,2.092c2.156,0.065,4.319,0.188,6.469,0.07
		c2.988-0.163,2.988-0.248,2.988-3.268C1488.717,278.468,1488.717,244.483,1488.717,210.499z"/>
	<path fill-rule="evenodd" clip-rule="evenodd" fill="#A1A0A0" d="M712.09,210.235c0,35.357-0.022,70.715,0.051,106.071
		c0.005,2.302-0.583,3.018-2.91,2.919c-4.392-0.188-8.798-0.093-13.196-0.032c-1.438,0.02-2.155-0.237-2.166-1.948
		c-0.044-7.03-0.323-14.06-0.365-21.091c-0.079-13.278-0.04-26.558-0.076-39.836c-0.088-31.989-0.267-63.979-0.262-95.968
		c0.003-18.549,0.289-37.099,0.455-55.648c0.029-3.266,0.047-3.267,3.397-3.268c3.84-0.001,7.679-0.001,11.519,0
		c3.551,0,3.552,0.001,3.552,3.45C712.09,140.001,712.09,175.119,712.09,210.235z M708.783,218.142
		c0-26.877,0.038-53.755-0.02-80.633c-0.021-9.831-0.316-19.662-0.371-29.493c-0.011-2.016-0.693-2.62-2.64-2.478
		c-2.228,0.163-4.482,0.13-6.715,0.008c-1.683-0.092-2.188,0.508-2.2,2.177c-0.077,10.711-0.385,21.422-0.369,32.133
		c0.064,41.83,0.223,83.659,0.343,125.488c0.025,8.959-0.011,17.919,0.072,26.877c0.066,7.191,0.237,14.384,0.466,21.571
		c0.022,0.712,0.738,1.973,1.199,2.005c2.77,0.192,5.561,0.069,8.343,0.118c1.291,0.022,1.678-0.732,1.726-1.789
		c0.088-1.916,0.158-3.835,0.158-5.753C708.785,278.297,708.783,248.22,708.783,218.142z"/>
	<path fill-rule="evenodd" clip-rule="evenodd" fill="#A1A0A0" d="M1632.424,210.237c0-35.189,0.023-70.379-0.053-105.569
		c-0.006-2.335,0.63-2.986,2.932-2.892c4.471,0.184,8.957,0.14,13.433,0.012c1.842-0.052,2.497,0.573,2.241,2.328
		c-0.046,0.313-0.007,0.639-0.007,0.959c0,70.299,0.001,140.598-0.002,210.898c-0.001,3.605,0.263,3.183-3.24,3.194
		c-4.319,0.015-8.642-0.098-12.955,0.049c-1.957,0.066-2.394-0.607-2.387-2.451c0.063-17.195,0.038-34.39,0.038-51.585
		C1632.424,246.866,1632.424,228.552,1632.424,210.237z M1635.619,260.411c0.16,0,0.321,0,0.481,0.001
		c0,15.19-0.006,30.381,0.006,45.572c0.003,2.719,0.112,5.438,0.11,8.156c-0.001,1.14,0.265,1.788,1.595,1.787
		c2.072-0.001,4.15,0.31,6.214,0.221c3.275-0.141,3.531-0.509,3.635-3.819c0.008-0.24,0.002-0.48,0.003-0.72
		c0.062-16.317,0.171-32.635,0.175-48.953c0.01-31.517,0.002-63.034-0.08-94.551c-0.043-16.71-0.252-33.421-0.393-50.131
		c-0.028-3.279-0.192-6.562-0.085-9.835c0.062-1.928-0.427-2.767-2.508-2.6c-2.146,0.173-4.328,0.176-6.473-0.001
		c-2.025-0.167-2.571,0.587-2.582,2.535c-0.073,13.111-0.372,26.221-0.367,39.331c0.009,25.511,0.185,51.021,0.262,76.532
		C1635.649,236.094,1635.619,248.253,1635.619,260.411z"/>
	<path fill-rule="evenodd" clip-rule="evenodd" fill="#A1A0A0" d="M1861.751,245.51c0-14.634-0.011-29.268,0.004-43.901
		c0.015-15.084,9.816-26.789,24.66-29.441c1.25-0.223,2.541-0.3,3.813-0.304c8.157-0.026,16.313-0.047,24.471-0.007
		c15.346,0.076,27.488,11.559,28.258,26.893c0.323,6.458,0.31,12.938,0.319,19.407c0.034,23.431,0.039,46.861-0.004,70.292
		c-0.012,5.898-0.999,11.603-4.134,16.766c-5.001,8.235-12.442,13.103-21.858,13.787c-9.69,0.704-19.504,0.727-29.201,0.093
		c-14.644-0.958-26.225-14.019-26.264-28.723c-0.041-14.954-0.009-29.908-0.009-44.862
		C1861.788,245.51,1861.77,245.51,1861.751,245.51z M1939.908,246.498c0-1.119,0.007-2.239-0.002-3.358
		c-0.105-14.63-0.001-29.264-0.383-43.886c-0.344-13.155-11.123-23.728-24.067-23.991c-8.074-0.164-16.156-0.16-24.231-0.016
		c-15.328,0.275-26.026,11.335-26.036,26.72c-0.017,26.234-0.063,52.468-0.032,78.702c0.006,4.703-0.268,9.521,0.618,14.087
		c2.304,11.874,12.732,20.838,23.91,21.001c8.395,0.123,16.795,0.103,25.188-0.072c7.673-0.16,14.041-3.267,19.016-9.181
		c4.273-5.08,5.985-11.035,6.006-17.534C1939.938,274.812,1939.908,260.655,1939.908,246.498z"/>
	<path fill-rule="evenodd" clip-rule="evenodd" fill="#A1A0A0" d="M644.419,163.839c0,9.599,0.04,19.197-0.014,28.795
		c-0.035,6.335-1.893,12.012-7.635,15.329c-2.584,1.493-5.834,2.503-8.802,2.553c-14.954,0.252-29.914,0.07-44.872,0.166
		c-2.226,0.015-2.757-0.961-2.773-2.825c-0.04-4.558-0.134-9.116-0.163-13.674c-0.113-18.309-0.255-36.619-0.289-54.928
		c-0.012-6.63,0.299-13.26,0.358-19.891c0.018-1.899,0.567-2.637,2.612-2.624c13.678,0.083,27.356,0.02,41.034,0.066
		c2.307,0.008,4.66,0.088,6.911,0.535c8.563,1.702,13.593,8.206,13.625,17.46C644.445,144.481,644.419,154.16,644.419,163.839z
		 M640.815,163.893c0-9.914,0.053-19.828-0.046-29.74c-0.019-1.87-0.317-3.871-1.043-5.575c-2.443-5.733-7.15-8.153-13.184-8.172
		c-13.271-0.042-26.543-0.028-39.814-0.007c-3.14,0.005-3.144,0.06-3.144,3.193c-0.001,26.783-0.001,53.565,0,80.348
		c0,0.48,0.037,0.962-0.004,1.438c-0.107,1.255,0.48,1.66,1.691,1.672c2.952,0.03,5.904,0.258,8.854,0.244
		c11.026-0.053,22.052-0.186,33.079-0.258c8.378-0.055,13.594-5.244,13.607-13.642C640.827,183.561,640.815,173.727,640.815,163.893
		z"/>
	<path fill-rule="evenodd" clip-rule="evenodd" fill="#A1A0A0" d="M1929.379,233.059c0,9.834-0.01,19.667,0.003,29.501
		c0.011,8.858,0.063,17.717,0.065,26.575c0.003,9.876-7.214,16.778-17.135,16.595c-6.713-0.124-13.431,0.001-20.146-0.067
		c-6.973-0.071-12.469-2.697-15.217-9.486c-0.702-1.736-1.175-3.702-1.179-5.563c-0.072-30.141-0.068-60.281-0.039-90.422
		c0.008-7.637,6.271-14.221,13.889-14.387c8.63-0.188,17.27-0.212,25.899-0.035c7.435,0.153,13.89,7.431,13.921,15.392
		c0.042,10.632,0.011,21.266,0.011,31.898C1929.428,233.059,1929.403,233.059,1929.379,233.059z M1926.07,228.353
		c0-8.317,0.053-16.635-0.014-24.951c-0.078-9.89-4.601-14.301-14.49-14.313c-6.556-0.007-13.112-0.054-19.669-0.044
		c-1.029,0.001-2.086,0.091-3.083,0.333c-6.051,1.468-9.826,6.432-9.831,13.064c-0.013,16.314,0.043,32.628,0.059,48.941
		c0.012,12.636-0.036,25.271,0.019,37.907c0.033,7.712,4.889,12.657,12.549,12.762c7.104,0.098,14.21,0.127,21.312-0.004
		c8.25-0.152,13.158-5.265,13.135-13.522c-0.011-4.071-0.275-8.143-0.259-12.213c0.037-9.269,0.203-18.537,0.266-27.807
		C1926.107,241.789,1926.071,235.071,1926.07,228.353z"/>
</g>
</svg>
